<?xml version="1.0" encoding="UTF-8"?>
<svg version="1.1" xmlns="http://www.w3.org/2000/svg" width="500" height="500">
<path d="M0 0 C165 0 330 0 500 0 C500 165 500 330 500 500 C335 500 170 500 0 500 C0 335 0 170 0 0 Z " fill="#FEFEFE" transform="translate(0,0)"/>
<path d="M0 0 C0.66 0 1.32 0 2 0 C3.29003906 1.67041016 3.29003906 1.67041016 4.765625 4.0390625 C5.59513672 5.35777344 5.59513672 5.35777344 6.44140625 6.703125 C7.03824219 7.66734375 7.63507813 8.6315625 8.25 9.625 C9.52585479 11.6589714 10.80190168 13.69282232 12.078125 15.7265625 C12.73103516 16.77231445 13.38394531 17.81806641 14.05664062 18.89550781 C17.01057009 23.61437303 20.00571066 28.30668472 23 33 C24.16689879 34.8331856 25.3335646 36.66651952 26.5 38.5 C27.0775 39.4075 27.655 40.315 28.25 41.25 C33.5 49.5 33.5 49.5 35.24951172 52.24926758 C36.41776388 54.08506912 37.58605824 55.9208438 38.75439453 57.7565918 C41.64714755 62.30194376 44.5391977 66.84773967 47.4296875 71.39453125 C53.60466382 81.10608491 59.79342163 90.80860801 66 100.5 C71.27940822 108.74454652 76.55289301 116.99280418 81.8125 125.25 C82.39322266 126.16072266 82.97394531 127.07144531 83.57226562 128.00976562 C84.61722333 129.65148532 85.65815695 131.29577783 86.69384766 132.94335938 C87.74751062 134.60243542 88.84218258 136.23542615 89.94921875 137.859375 C91 140 91 140 90.86743164 141.94433594 C89.62833894 144.88077291 87.95638251 145.53182382 85.171875 147.03125 C84.15569092 147.58796387 83.13950684 148.14467773 82.0925293 148.71826172 C80.98949463 149.30623535 79.88645996 149.89420898 78.75 150.5 C76.43833268 151.7621615 74.12714127 153.02519498 71.81640625 154.2890625 C70.65898926 154.9171582 69.50157227 155.54525391 68.30908203 156.19238281 C63.73290029 158.69216514 59.20699365 161.27453499 54.6875 163.875 C52.99228687 164.84652758 51.29697131 165.81787644 49.6015625 166.7890625 C48.27560059 167.54944824 48.27560059 167.54944824 46.92285156 168.32519531 C41.74740918 171.29074282 36.56745679 174.24840259 31.38809204 177.20709229 C28.50987601 178.85133352 25.63190118 180.49599679 22.75390625 182.140625 C21.65449707 182.76388672 20.55508789 183.38714844 19.42236328 184.02929688 C16.99786475 185.42539847 14.60197535 186.84281187 12.21435547 188.29882812 C11.58754379 188.67440857 10.96073212 189.04998901 10.31492615 189.43695068 C8.56218866 190.48847464 6.81781346 191.55390079 5.07397461 192.62011719 C1.63033292 194.16594062 0.48614371 194.28132038 -3 193 C-5.34228516 191.83935547 -5.34228516 191.83935547 -7.7890625 190.3671875 C-8.7174292 189.81562988 -9.6457959 189.26407227 -10.60229492 188.69580078 C-11.5997876 188.09493652 -12.59728027 187.49407227 -13.625 186.875 C-23.80786084 180.82890183 -34.08423185 175.01073786 -44.47314453 169.32763672 C-51.12915602 165.66647436 -57.62712889 161.82862679 -64.06347656 157.79858398 C-67.70886383 155.56582974 -71.44346634 153.53662864 -75.2109375 151.51953125 C-80.20789969 148.79709667 -85.09915897 145.8908975 -90 143 C-89.35971931 139.61345514 -88.07867027 137.30416442 -86.1875 134.4375 C-85.55070313 133.45910156 -84.91390625 132.48070312 -84.2578125 131.47265625 C-83.89848633 130.9223877 -83.53916016 130.37211914 -83.16894531 129.80517578 C-80.93193609 126.35061309 -78.75354484 122.85881593 -76.5625 119.375 C-71.10349754 110.71799658 -65.59041162 102.09611001 -60.0690918 93.47875977 C-53.93194883 83.89909623 -47.82136791 74.3027222 -41.71777344 64.70166016 C-38.23241831 59.22000299 -34.74417465 53.74018311 -31.25610352 48.26025391 C-28.30027925 43.61615549 -25.34598162 38.97109832 -22.39453125 34.32421875 C-16.84954321 25.59648428 -11.29545564 16.87495274 -5.6875 8.1875 C-5.22512939 7.46973389 -4.76275879 6.75196777 -4.28637695 6.01245117 C-1.11988591 1.11988591 -1.11988591 1.11988591 0 0 Z " fill="#80A4F4" transform="translate(257,108)"/>
<path d="M0 0 C3.68938057 0.68277141 6.5048561 2.27790956 9.7421875 4.140625 C10.87946289 4.79240723 12.01673828 5.44418945 13.18847656 6.11572266 C14.4174334 6.82694857 15.64627173 7.53837929 16.875 8.25 C18.14535208 8.98122765 19.4158616 9.71218185 20.68652344 10.44287109 C30.00939708 15.81261568 39.2815409 21.2669856 48.53125 26.76171875 C55.5650245 30.93641324 62.63637543 35.04660002 69.70800781 39.15673828 C71.11324707 39.97440674 71.11324707 39.97440674 72.546875 40.80859375 C73.45759766 41.33308105 74.36832031 41.85756836 75.30664062 42.39794922 C77.12468161 43.47934742 78.91543727 44.60778758 80.67773438 45.77783203 C85.67831778 49.06593145 85.67831778 49.06593145 91.44140625 50.26171875 C96.6730851 48.40679859 101.20857015 45.69413168 105.9375 42.8125 C108.08964612 41.52831457 110.2419956 40.2444699 112.39453125 38.9609375 C113.49104004 38.3019043 114.58754883 37.64287109 115.71728516 36.96386719 C120.82573479 33.9077636 125.97659384 30.92560612 131.125 27.9375 C138.97652483 23.36380244 146.80693664 18.75562637 154.625 14.125 C167.19741577 6.68842613 167.19741577 6.68842613 173.25 3.1875 C174.32765625 2.56230469 175.4053125 1.93710937 176.515625 1.29296875 C179 0 179 0 181 0 C180.40376761 3.05204273 179.50386994 4.96967522 177.5859375 7.40625 C177.08006104 8.05706543 176.57418457 8.70788086 176.05297852 9.37841797 C175.49924561 10.07854004 174.9455127 10.77866211 174.375 11.5 C173.18265949 13.03312803 171.99129196 14.56701315 170.80078125 16.1015625 C170.1763916 16.90368164 169.55200195 17.70580078 168.90869141 18.53222656 C165.75104456 22.6147917 162.65568128 26.74349447 159.5625 30.875 C158.93529053 31.71144043 158.30808105 32.54788086 157.66186523 33.40966797 C153.97282798 38.33752925 150.3147401 43.28691601 146.67626953 48.25219727 C140.8743833 56.16971093 134.95847662 63.97975009 128.90917969 71.70996094 C124.18680105 77.74485547 119.5714975 83.84973106 115 90 C112.4541727 93.41188444 109.90254208 96.8192677 107.34082031 100.21923828 C106.35452239 101.52915398 105.36971358 102.84019124 104.38574219 104.15185547 C102.63706853 106.47998 100.88164355 108.80288499 99.125 111.125 C98.56522461 111.87225342 98.00544922 112.61950684 97.42871094 113.3894043 C96.89793945 114.088479 96.36716797 114.78755371 95.8203125 115.5078125 C95.34867676 116.13316895 94.87704102 116.75852539 94.39111328 117.40283203 C93 119 93 119 90 121 C81.7040959 110.40255605 73.50004284 99.74667798 65.45898438 88.95458984 C64.00309407 87.00414509 62.54166467 85.05799133 61.078125 83.11328125 C56.31092947 76.77705521 51.57059169 70.42375629 46.88500977 64.02685547 C41.01483072 56.01592171 35.03055799 48.11226123 28.90991211 40.29101562 C24.18730526 34.2557182 19.57346476 28.14934026 15 22 C13.4383358 19.91604008 11.87583088 17.83270991 10.3125 15.75 C9.21035156 14.27660156 9.21035156 14.27660156 8.0859375 12.7734375 C6.76791081 11.02100501 5.44091033 9.27525413 4.1015625 7.5390625 C3.55242187 6.82492187 3.00328125 6.11078125 2.4375 5.375 C1.96183594 4.76398438 1.48617187 4.15296875 0.99609375 3.5234375 C0 2 0 2 0 0 Z " fill="#F90101" transform="translate(167,263)"/>
<path d="M0 0 C2.92995871 2.92995871 4.8052484 4.98542007 6.92578125 8.359375 C7.46710693 9.21523193 8.00843262 10.07108887 8.56616211 10.95288086 C9.14245361 11.87593018 9.71874512 12.79897949 10.3125 13.75 C10.92424072 14.7201001 11.53598145 15.6902002 12.16625977 16.68969727 C15.36935452 21.77643822 18.54854669 26.87803439 21.7265625 31.98046875 C22.9634955 33.96617459 24.20047473 35.95185163 25.4375 37.9375 C26.36248291 39.42358765 26.36248291 39.42358765 27.30615234 40.93969727 C32.38213787 49.07010077 37.60113139 57.10130848 42.8581543 65.11547852 C46.6958098 70.9734884 50.42718311 76.87363771 54.0625 82.859375 C56.40224304 86.65202299 58.82096717 90.389139 61.25 94.125 C65.3236949 100.39651554 69.36910319 106.68492401 73.375 113 C73.86258789 113.7645752 74.35017578 114.52915039 74.85253906 115.31689453 C78.0964234 120.44356948 81.10818521 125.6670838 84 131 C78.30833282 129.26839782 73.10083561 127.18616083 67.84765625 124.37890625 C65.39038082 123.18903214 62.95127365 122.1670878 60.4128418 121.16894531 C55.41367744 119.1806166 50.4742733 117.0771348 45.546875 114.91796875 C44.68419006 114.54070145 43.82150513 114.16343414 42.93267822 113.7747345 C41.12059364 112.98146401 39.30889109 112.18732028 37.49755859 111.39233398 C34.7721506 110.19721328 32.04434804 109.00768296 29.31640625 107.81835938 C27.53891221 107.03940535 25.76156381 106.26011889 23.984375 105.48046875 C23.19117859 105.13541794 22.39798218 104.79036713 21.58074951 104.43486023 C14.23604033 101.19920767 7.21016158 97.60508079 0 94 C0 62.98 0 31.96 0 0 Z " fill="#A5F6F0" transform="translate(259,115)"/>
<path d="M0 0 C0.33 0 0.66 0 1 0 C1 30.69 1 61.38 1 93 C-9.10752474 98.05376237 -19.06920128 102.90200025 -29.4375 107.3125 C-30.73040648 107.86722538 -32.0230446 108.42257659 -33.31542969 108.97851562 C-35.28498747 109.82574841 -37.25464045 110.67274442 -39.2250061 111.51809692 C-45.746249 114.31595048 -52.25147186 117.14978563 -58.75 120 C-60.23777954 120.64835815 -60.23777954 120.64835815 -61.75561523 121.30981445 C-67.26771739 123.72940519 -72.62492905 126.30317672 -77.91503906 129.1796875 C-80 130 -80 130 -83 129 C-82.41734375 128.13761719 -81.8346875 127.27523437 -81.234375 126.38671875 C-74.2824931 116.05245125 -67.61750155 105.550565 -61 95 C-54.65048213 84.87813401 -48.23844635 74.80548333 -41.6875 64.8125 C-35.866943 55.92892331 -30.18908497 46.96544372 -24.57739258 37.94873047 C-20.20638562 30.92589107 -15.80827553 23.92121771 -11.375 16.9375 C-10.8070874 16.0395874 -10.2391748 15.1416748 -9.65405273 14.21655273 C-6.57240419 9.37053467 -3.45180317 4.59201974 0 0 Z " fill="#CCC0F7" transform="translate(255,116)"/>
<path d="M0 0 C5.8059007 1.93530023 11.27181855 3.86847439 16.8046875 6.37109375 C17.51822891 6.68962814 18.23177032 7.00816254 18.9669342 7.33634949 C21.27140697 8.36613225 23.5732028 9.4017525 25.875 10.4375 C27.48101345 11.1565067 29.08721674 11.87508948 30.69360352 12.59326172 C33.92658425 14.03906828 37.15867217 15.48684325 40.39013672 16.93603516 C44.55915805 18.80439159 48.73314225 20.66130972 52.91015625 22.51171875 C54.10592285 23.041604 55.30168945 23.57148926 56.53369141 24.11743164 C58.71683036 25.08435769 60.90008802 26.05101579 63.08349609 27.01733398 C70.42242631 30.27437911 77.71758535 33.61853776 85 37 C81.58412578 39.62273882 78.01769136 41.74176959 74.25 43.8125 C67.29717541 47.67590224 60.42213053 51.66124359 53.5625 55.6875 C42.99897326 61.87808075 32.34200768 67.88828669 21.64453125 73.84375 C18.21073983 75.75708359 14.78861873 77.68676882 11.38671875 79.65625 C10.39599365 80.22980225 10.39599365 80.22980225 9.38525391 80.81494141 C7.71419165 81.78678072 6.04638226 82.7642077 4.37890625 83.7421875 C2 85 2 85 0 85 C0 56.95 0 28.9 0 0 Z " fill="#C9ADFC" transform="translate(259,213)"/>
<path d="M0 0 C7.69565767 4.15202743 15.30699264 8.43254152 22.875 12.8125 C24.53656128 13.772771 24.53656128 13.772771 26.23168945 14.75244141 C79.65592553 45.65592553 79.65592553 45.65592553 82 48 C82.09386381 49.8718094 82.11743804 51.7471806 82.11352539 53.62133789 C82.11341209 55.42309227 82.11341209 55.42309227 82.11329651 57.26124573 C82.10813522 58.5685112 82.10297394 59.87577667 82.09765625 61.22265625 C82.09579198 62.56644132 82.09436812 63.91022707 82.09336853 65.25401306 C82.08954402 68.79682277 82.07971432 72.3395917 82.06866455 75.88238525 C82.05844899 79.49515227 82.0538706 83.10792584 82.04882812 86.72070312 C82.03809198 93.8138188 82.02101636 100.90690674 82 108 C78.58699142 104.63031444 75.52602661 101.25972979 72.625 97.4375 C72.20927734 96.89158203 71.79355469 96.34566406 71.36523438 95.78320312 C66.72553079 89.67481639 62.13846671 83.52618437 57.54296875 77.38452148 C53.93460346 72.56528615 50.30628962 67.76376231 46.625 63 C40.73720338 55.37705802 34.93034754 47.69943309 29.3125 39.875 C25.67487739 34.84780555 21.88091755 29.95258531 18.0625 25.0625 C9.68837406 14.3345114 9.68837406 14.3345114 5.75 9.125 C5.06421875 8.22007812 4.3784375 7.31515625 3.671875 6.3828125 C2.20826295 4.29682337 1.10527556 2.2846781 0 0 Z " fill="#FCFC06" transform="translate(174,269)"/>
<path d="M0 0 C0.66 0 1.32 0 2 0 C3.29003906 1.67041016 3.29003906 1.67041016 4.765625 4.0390625 C5.59513672 5.35777344 5.59513672 5.35777344 6.44140625 6.703125 C7.03824219 7.66734375 7.63507813 8.6315625 8.25 9.625 C9.52585479 11.6589714 10.80190168 13.69282232 12.078125 15.7265625 C12.73103516 16.77231445 13.38394531 17.81806641 14.05664062 18.89550781 C17.01057009 23.61437303 20.00571066 28.30668472 23 33 C24.16689879 34.8331856 25.3335646 36.66651952 26.5 38.5 C27.0775 39.4075 27.655 40.315 28.25 41.25 C33.5 49.5 33.5 49.5 35.24951172 52.24926758 C36.41776388 54.08506912 37.58605824 55.9208438 38.75439453 57.7565918 C41.64714755 62.30194376 44.5391977 66.84773967 47.4296875 71.39453125 C53.60466382 81.10608491 59.79342163 90.80860801 66 100.5 C71.27940822 108.74454652 76.55289301 116.99280418 81.8125 125.25 C82.39322266 126.16072266 82.97394531 127.07144531 83.57226562 128.00976562 C84.61722333 129.65148532 85.65815695 131.29577783 86.69384766 132.94335938 C87.74751062 134.60243542 88.84218258 136.23542615 89.94921875 137.859375 C91 140 91 140 90.86743164 141.94433594 C89.62833894 144.88077291 87.95638251 145.53182382 85.171875 147.03125 C84.15569092 147.58796387 83.13950684 148.14467773 82.0925293 148.71826172 C80.98949463 149.30623535 79.88645996 149.89420898 78.75 150.5 C76.43833268 151.7621615 74.12714127 153.02519498 71.81640625 154.2890625 C70.65898926 154.9171582 69.50157227 155.54525391 68.30908203 156.19238281 C63.73290029 158.69216514 59.20699365 161.27453499 54.6875 163.875 C52.99228687 164.84652758 51.29697131 165.81787644 49.6015625 166.7890625 C48.27560059 167.54944824 48.27560059 167.54944824 46.92285156 168.32519531 C41.74740918 171.29074282 36.56745679 174.24840259 31.38809204 177.20709229 C28.50987601 178.85133352 25.63190118 180.49599679 22.75390625 182.140625 C21.65449707 182.76388672 20.55508789 183.38714844 19.42236328 184.02929688 C16.99786475 185.42539847 14.60197535 186.84281187 12.21435547 188.29882812 C11.58754379 188.67440857 10.96073212 189.04998901 10.31492615 189.43695068 C8.56218866 190.48847464 6.81781346 191.55390079 5.07397461 192.62011719 C1.63033292 194.16594062 0.48614371 194.28132038 -3 193 C-5.34228516 191.83935547 -5.34228516 191.83935547 -7.7890625 190.3671875 C-8.7174292 189.81562988 -9.6457959 189.26407227 -10.60229492 188.69580078 C-11.5997876 188.09493652 -12.59728027 187.49407227 -13.625 186.875 C-23.80786084 180.82890183 -34.08423185 175.01073786 -44.47314453 169.32763672 C-51.12915602 165.66647436 -57.62712889 161.82862679 -64.06347656 157.79858398 C-67.70886383 155.56582974 -71.44346634 153.53662864 -75.2109375 151.51953125 C-80.20789969 148.79709667 -85.09915897 145.8908975 -90 143 C-89.35971931 139.61345514 -88.07867027 137.30416442 -86.1875 134.4375 C-85.55070313 133.45910156 -84.91390625 132.48070312 -84.2578125 131.47265625 C-83.89848633 130.9223877 -83.53916016 130.37211914 -83.16894531 129.80517578 C-80.93193609 126.35061309 -78.75354484 122.85881593 -76.5625 119.375 C-71.10349754 110.71799658 -65.59041162 102.09611001 -60.0690918 93.47875977 C-53.93194883 83.89909623 -47.82136791 74.3027222 -41.71777344 64.70166016 C-38.23241831 59.22000299 -34.74417465 53.74018311 -31.25610352 48.26025391 C-28.30027925 43.61615549 -25.34598162 38.97109832 -22.39453125 34.32421875 C-16.84954321 25.59648428 -11.29545564 16.87495274 -5.6875 8.1875 C-5.22512939 7.46973389 -4.76275879 6.75196777 -4.28637695 6.01245117 C-1.11988591 1.11988591 -1.11988591 1.11988591 0 0 Z M2 7 C2 38.02 2 69.04 2 101 C14.74992464 107.42678503 14.74992464 107.42678503 27.70703125 113.32421875 C28.52394943 113.67837357 29.34086761 114.03252838 30.18254089 114.39741516 C32.72406121 115.49833152 35.26811728 116.59321789 37.8125 117.6875 C41.19471529 119.14811142 44.57592527 120.61104157 47.95703125 122.07421875 C48.75924606 122.42095642 49.56146088 122.76769409 50.38798523 123.12493896 C56.29109477 125.68056966 62.15756726 128.30837601 68 131 C70.8490208 132.30342021 73.70320259 133.59430203 76.5625 134.875 C77.25923828 135.1946875 77.95597656 135.514375 78.67382812 135.84375 C80.42354924 136.62290945 82.20964888 137.31937065 84 138 C84.66 137.67 85.32 137.34 86 137 C85.68885254 136.50822266 85.37770508 136.01644531 85.05712891 135.50976562 C83.57931033 133.17345648 82.10209649 130.83676575 80.625 128.5 C80.0798877 127.63793945 79.53477539 126.77587891 78.97314453 125.88769531 C75.99314815 121.17074211 73.02899943 116.4447431 70.08764648 111.70361328 C66.51036795 105.94050017 62.85760043 100.24723301 59.0625 94.625 C55.45261266 89.27401397 52.02626304 83.83649335 48.6875 78.3125 C44.31028231 71.07161681 39.75828076 63.96447566 35.12011719 56.88842773 C30.79782631 50.27491661 26.6043741 43.58729298 22.4375 36.875 C17.76016306 29.35332022 13.0244268 21.87931 8.125 14.5 C7.6189624 13.73413574 7.1129248 12.96827148 6.59155273 12.17919922 C5.42275233 10.43345817 4.21578648 8.71335035 3 7 C2.67 7 2.34 7 2 7 Z M-2 8 C-7.2820084 14.71961925 -11.64645452 22.15963614 -16.14453125 29.4140625 C-19.30750597 34.50916102 -22.52664882 39.56794987 -25.75 44.625 C-26.34022949 45.55111084 -26.93045898 46.47722168 -27.53857422 47.43139648 C-28.74971165 49.33146027 -29.96097573 51.23144333 -31.17236328 53.13134766 C-32.99096228 55.98581443 -34.80654508 58.8421758 -36.62109375 61.69921875 C-42.36117921 70.73511822 -48.12282863 79.75509939 -53.95336914 88.73291016 C-57.90272833 94.82504541 -61.77962545 100.96182966 -65.64746094 107.10595703 C-68.69462647 111.94375581 -71.77003947 116.76162534 -74.875 121.5625 C-78.36673267 126.97500365 -81.73712463 132.44671407 -85 138 C-81.9545376 137.3267514 -79.25516892 136.32270076 -76.40625 135.05859375 C-75.47627197 134.64778564 -74.54629395 134.23697754 -73.58813477 133.8137207 C-72.56905029 133.35956787 -71.54996582 132.90541504 -70.5 132.4375 C-68.88532837 131.72243286 -68.88532837 131.72243286 -67.23803711 130.99291992 C-64.17421946 129.63505513 -61.11181043 128.2740959 -58.04998779 126.91174316 C-55.13423582 125.61494669 -52.21749231 124.32038688 -49.30081177 123.02568054 C-41.73532908 119.66728216 -34.17039543 116.30763649 -26.60940552 112.93913269 C-22.72074206 111.20723216 -18.82897795 109.48271957 -14.93310547 107.76708984 C-14.10262192 107.40048752 -13.27213837 107.03388519 -12.41648865 106.65617371 C-10.80995104 105.94717979 -9.20260713 105.24000946 -7.59437561 104.53486633 C-4.04727295 103.16195496 -4.04727295 103.16195496 -1 101 C-0.90476095 98.10856849 -0.87446973 95.24107936 -0.88647461 92.34936523 C-0.88632858 91.44213715 -0.88618256 90.53490906 -0.8860321 89.60018921 C-0.88673159 86.58630015 -0.89452566 83.57247207 -0.90234375 80.55859375 C-0.9042078 78.47494033 -0.90563176 76.39128646 -0.90663147 74.30763245 C-0.91045766 68.81176554 -0.9202888 63.31592487 -0.93133545 57.82006836 C-0.9415474 52.21663773 -0.94612863 46.61320287 -0.95117188 41.00976562 C-0.96191098 30.00649886 -0.97898861 19.00325161 -1 8 C-1.33 8 -1.66 8 -2 8 Z M-7.13671875 106.6953125 C-8.44322388 107.26354736 -8.44322388 107.26354736 -9.77612305 107.84326172 C-11.21725464 108.47772217 -11.21725464 108.47772217 -12.6875 109.125 C-14.20500854 109.78846436 -14.20500854 109.78846436 -15.75317383 110.46533203 C-24.91785433 114.48844691 -34.03059338 118.62462183 -43.14343262 122.76330566 C-57.00574405 129.0546292 -70.98054596 135.06812247 -85 141 C-83.57083855 145.28748436 -80.40804493 146.28903074 -76.625 148.3125 C-75.52418091 148.9161438 -75.52418091 148.9161438 -74.40112305 149.53198242 C-72.27225695 150.69719503 -70.13738967 151.85051489 -68 153 C-58.31130995 158.24747106 -48.74659604 163.6943442 -39.18798828 169.17431641 C-35.6571541 171.19633953 -32.12378373 173.21388065 -28.58984375 175.23046875 C-27.31892426 175.95588355 -26.04800954 176.68130672 -24.77709961 177.40673828 C-22.89988022 178.47823604 -21.02259276 179.54961332 -19.14505005 180.62054443 C-17.38807326 181.62281748 -15.63152921 182.62584901 -13.875 183.62890625 C-12.86179687 184.20713135 -11.84859375 184.78535645 -10.8046875 185.38110352 C-8.9370009 186.45915277 -7.08746236 187.56927985 -5.2578125 188.71069336 C-3.14387174 190.16529537 -3.14387174 190.16529537 -1 190 C-1 161.95 -1 133.9 -1 105 C-3.45184687 105 -4.88567507 105.71292546 -7.13671875 106.6953125 Z M2 105 C2 133.05 2 161.1 2 190 C6.30841724 188.56386092 9.21065872 187.47293907 12.95703125 185.234375 C13.89192383 184.68120605 14.82681641 184.12803711 15.79003906 183.55810547 C16.78745117 182.96143066 17.78486328 182.36475586 18.8125 181.75 C27.39594109 176.6734174 36.02923058 171.71182594 44.75 166.875 C53.37016078 162.08743754 61.88555608 157.16419683 70.28222656 151.99365234 C75.70969703 148.67555328 81.272224 145.7662427 87 143 C85.55568161 140.11136323 83.705719 139.8393038 80.74609375 138.59375 C79.60060059 138.10583984 78.45510742 137.61792969 77.27490234 137.11523438 C76.65202332 136.85315186 76.02914429 136.59106934 75.38739014 136.32104492 C72.00302368 134.89598161 68.62844275 133.44815592 65.25390625 132 C64.52554565 131.68776489 63.79718506 131.37552979 63.04675293 131.05383301 C52.73418182 126.61662411 42.51713102 121.96347687 32.29196167 117.3293457 C17.56936436 109.25568855 17.56936436 109.25568855 2 105 Z " fill="#191D2A" transform="translate(257,108)"/>
<path d="M0 0 C3.68938057 0.68277141 6.5048561 2.27790956 9.7421875 4.140625 C10.87946289 4.79240723 12.01673828 5.44418945 13.18847656 6.11572266 C14.4174334 6.82694857 15.64627173 7.53837929 16.875 8.25 C18.14535208 8.98122765 19.4158616 9.71218185 20.68652344 10.44287109 C30.00939708 15.81261568 39.2815409 21.2669856 48.53125 26.76171875 C55.5650245 30.93641324 62.63637543 35.04660002 69.70800781 39.15673828 C71.11324707 39.97440674 71.11324707 39.97440674 72.546875 40.80859375 C73.45759766 41.33308105 74.36832031 41.85756836 75.30664062 42.39794922 C77.12468161 43.47934742 78.91543727 44.60778758 80.67773438 45.77783203 C85.67831778 49.06593145 85.67831778 49.06593145 91.44140625 50.26171875 C96.6730851 48.40679859 101.20857015 45.69413168 105.9375 42.8125 C108.08964612 41.52831457 110.2419956 40.2444699 112.39453125 38.9609375 C113.49104004 38.3019043 114.58754883 37.64287109 115.71728516 36.96386719 C120.82573479 33.9077636 125.97659384 30.92560612 131.125 27.9375 C138.97652483 23.36380244 146.80693664 18.75562637 154.625 14.125 C167.19741577 6.68842613 167.19741577 6.68842613 173.25 3.1875 C174.32765625 2.56230469 175.4053125 1.93710937 176.515625 1.29296875 C179 0 179 0 181 0 C180.40376761 3.05204273 179.50386994 4.96967522 177.5859375 7.40625 C177.08006104 8.05706543 176.57418457 8.70788086 176.05297852 9.37841797 C175.49924561 10.07854004 174.9455127 10.77866211 174.375 11.5 C173.18265949 13.03312803 171.99129196 14.56701315 170.80078125 16.1015625 C170.1763916 16.90368164 169.55200195 17.70580078 168.90869141 18.53222656 C165.75104456 22.6147917 162.65568128 26.74349447 159.5625 30.875 C158.93529053 31.71144043 158.30808105 32.54788086 157.66186523 33.40966797 C153.97282798 38.33752925 150.3147401 43.28691601 146.67626953 48.25219727 C140.8743833 56.16971093 134.95847662 63.97975009 128.90917969 71.70996094 C124.18680105 77.74485547 119.5714975 83.84973106 115 90 C112.4541727 93.41188444 109.90254208 96.8192677 107.34082031 100.21923828 C106.35452239 101.52915398 105.36971358 102.84019124 104.38574219 104.15185547 C102.63706853 106.47998 100.88164355 108.80288499 99.125 111.125 C98.56522461 111.87225342 98.00544922 112.61950684 97.42871094 113.3894043 C96.89793945 114.088479 96.36716797 114.78755371 95.8203125 115.5078125 C95.34867676 116.13316895 94.87704102 116.75852539 94.39111328 117.40283203 C93 119 93 119 90 121 C81.7040959 110.40255605 73.50004284 99.74667798 65.45898438 88.95458984 C64.00309407 87.00414509 62.54166467 85.05799133 61.078125 83.11328125 C56.31092947 76.77705521 51.57059169 70.42375629 46.88500977 64.02685547 C41.01483072 56.01592171 35.03055799 48.11226123 28.90991211 40.29101562 C24.18730526 34.2557182 19.57346476 28.14934026 15 22 C13.4383358 19.91604008 11.87583088 17.83270991 10.3125 15.75 C9.21035156 14.27660156 9.21035156 14.27660156 8.0859375 12.7734375 C6.76791081 11.02100501 5.44091033 9.27525413 4.1015625 7.5390625 C3.55242187 6.82492187 3.00328125 6.11078125 2.4375 5.375 C1.96183594 4.76398438 1.48617187 4.15296875 0.99609375 3.5234375 C0 2 0 2 0 0 Z M7 6 C8.36366942 8.93374528 9.93795727 11.36981327 11.94140625 13.90625 C12.52083984 14.64439941 13.10027344 15.38254883 13.69726562 16.14306641 C14.31279297 16.92085449 14.92832031 17.69864258 15.5625 18.5 C16.83542607 20.12177556 18.10756081 21.74417255 19.37890625 23.3671875 C19.99910645 24.15834961 20.61930664 24.94951172 21.25830078 25.76464844 C24.91251658 30.45458394 28.45222314 35.22931521 32 40 C33.9979708 42.66818958 35.99908798 45.33401571 38 48 C38.92973897 49.23954473 39.85942771 50.47912714 40.7890625 51.71875 C42.25228331 53.66979644 43.71560638 55.62076581 45.17919922 57.5715332 C47.81983124 61.09143693 50.45880101 64.61255829 53.09375 68.13671875 C57.64914223 74.22593524 62.21775785 80.30070049 66.875 86.3125 C69.85174065 90.15564159 72.76590907 94.03220726 75.62890625 97.9609375 C76.5737085 99.25584106 76.5737085 99.25584106 77.53759766 100.5769043 C78.78524696 102.29125973 80.02855824 104.00878229 81.26708984 105.72973633 C81.83766113 106.51372803 82.40823242 107.29771973 82.99609375 108.10546875 C83.50325928 108.80824951 84.0104248 109.51103027 84.53295898 110.23510742 C86.06587031 112.24994657 86.06587031 112.24994657 89 114 C89.20892707 106.28122664 89.36864028 98.56274766 89.46630955 90.84178734 C89.5132002 87.25597355 89.57673688 83.67209949 89.67895508 80.08740234 C89.77706869 76.6248041 89.83061876 73.16406517 89.85389519 69.70018387 C89.87851477 67.74207366 89.94873008 65.78470795 90.01966858 63.82772827 C90.18639014 57.30406938 90.18639014 57.30406938 87.06324768 51.89241028 C84.76474783 50.33796909 82.52481907 49.14151351 80 48 C78.79177587 47.31190144 77.58846835 46.61494418 76.39453125 45.90234375 C75.20209759 45.24452947 74.00801976 44.58968875 72.8125 43.9375 C66.35139345 40.35658986 59.97514691 36.6489287 53.625 32.875 C45.17803061 27.86021961 36.69658234 22.90838934 28.1875 18 C26.56932373 17.06583252 26.56932373 17.06583252 24.91845703 16.11279297 C18.97430272 12.6889378 13.00980891 9.30734768 7 6 Z M172 7 C161.38536124 13.00573557 150.8124204 19.0652546 140.375 25.375 C134.68221158 28.8138379 128.98057988 32.17375317 123.11328125 35.30859375 C118.46000467 37.83665995 113.85489834 40.44757699 109.25 43.0625 C107.89950562 43.82336914 107.89950562 43.82336914 106.52172852 44.59960938 C105.65346436 45.09396484 104.7852002 45.58832031 103.890625 46.09765625 C102.73095215 46.75519897 102.73095215 46.75519897 101.54785156 47.42602539 C100.70706055 47.94543701 99.86626953 48.46484863 99 49 C98.39332993 49.26659927 97.78665985 49.53319855 97.16160583 49.80787659 C94.89308187 50.99723877 93.56916402 51.95950532 92 54 C91.00285538 58.60850175 91.18675864 63.1365472 91.31640625 67.83203125 C91.32947251 69.19249418 91.33943184 70.5529902 91.34642029 71.91349792 C91.37306759 75.48346924 91.44175296 79.05142655 91.51934814 82.62060547 C91.59113428 86.26697544 91.62296406 89.91367299 91.65820312 93.56054688 C91.73313323 100.70785207 91.85250137 107.85379412 92 115 C95.33190121 111.71335149 98.29176838 108.46188777 101.0625 104.6875 C102.22265625 103.11742187 102.22265625 103.11742187 103.40625 101.515625 C103.82132813 100.95166016 104.23640625 100.38769531 104.6640625 99.80664062 C106.59713578 97.19246989 108.55455665 94.5968372 110.51049805 91.99975586 C112.54199891 89.30035555 114.5661477 86.5955093 116.58837891 83.88916016 C117.49594465 82.67457287 118.40440009 81.46064961 119.31396484 80.24755859 C120.46437275 78.71048199 121.60746028 77.16793416 122.75 75.625 C123.70132813 74.34496094 123.70132813 74.34496094 124.671875 73.0390625 C126.18192601 71.12626551 126.18192601 71.12626551 126 69 C126.66 69 127.32 69 128 69 C129.821042 66.82541722 129.821042 66.82541722 131.625 64.125 C132.25664062 63.22007812 132.88828125 62.31515625 133.5390625 61.3828125 C135.17423105 59.18166294 135.17423105 59.18166294 135 57 C135.66 57 136.32 57 137 57 C138.74057523 54.93158344 138.74057523 54.93158344 140.5625 52.25 C143.47239284 48.14778645 146.41207609 44.08047526 149.4375 40.0625 C152.50680142 35.98418555 155.56910122 31.90086713 158.625 27.8125 C161.86931467 23.48485648 165.15487303 19.19378512 168.4921875 14.9375 C170.01889444 12.97572114 171.51422283 10.99289872 173 9 C172.505 8.01 172.505 8.01 172 7 Z " fill="#3A1111" transform="translate(167,263)"/>
<path d="M0 0 C0.66 0 1.32 0 2 0 C3.625 2 3.625 2 5 4 C4.67 4.66 4.34 5.32 4 6 C3.01 5.67 2.02 5.34 1 5 C0.67 37.01 0.34 69.02 0 102 C-0.66 102 -1.32 102 -2 102 C-2 102.66 -2 103.32 -2 104 C-1.34 104 -0.68 104 0 104 C-0.01332367 105.60612907 -0.01332367 105.60612907 -0.0269165 107.2447052 C-0.10792278 117.32427039 -0.16792709 127.40376974 -0.20724869 137.48358631 C-0.22814383 142.66603449 -0.25649668 147.84822038 -0.30175781 153.03051758 C-0.34514676 158.02960992 -0.36912258 163.02844962 -0.37950897 168.02771568 C-0.38691285 169.93717109 -0.40137057 171.84661231 -0.42292023 173.75596046 C-0.45186207 176.42591097 -0.45595991 179.09481103 -0.45410156 181.76489258 C-0.46848267 182.55827026 -0.48286377 183.35164795 -0.49768066 184.16906738 C-0.49820871 188.57673179 -0.49820871 188.57673179 2.02838135 192.01469421 C2.6790155 192.33984512 3.32964966 192.66499603 4 193 C1.11143448 193.84677004 -0.4908295 194.19305872 -3.34570312 193.1105957 C-4.14943359 192.63710693 -4.95316406 192.16361816 -5.78125 191.67578125 C-6.69463135 191.14791016 -7.6080127 190.62003906 -8.54907227 190.07617188 C-9.52287842 189.49416016 -10.49668457 188.91214844 -11.5 188.3125 C-12.51956787 187.71888672 -13.53913574 187.12527344 -14.58959961 186.51367188 C-16.7046129 185.28219071 -18.8164926 184.04531287 -20.92529297 182.80322266 C-24.59765709 180.6494922 -28.29767915 178.54775778 -32.00244141 176.45043945 C-41.16249751 171.26067278 -50.24169666 165.93866122 -59.27954102 160.5390625 C-64.62164561 157.35864674 -70.02365681 154.32333146 -75.4921875 151.36572266 C-78.59409467 149.67646363 -81.64314972 147.91579429 -84.6875 146.125 C-85.70199219 145.52945313 -86.71648437 144.93390625 -87.76171875 144.3203125 C-88.86966797 143.66675781 -88.86966797 143.66675781 -90 143 C-89.35971931 139.61345514 -88.07867027 137.30416442 -86.1875 134.4375 C-85.55070313 133.45910156 -84.91390625 132.48070312 -84.2578125 131.47265625 C-83.89848633 130.9223877 -83.53916016 130.37211914 -83.16894531 129.80517578 C-80.93193609 126.35061309 -78.75354484 122.85881593 -76.5625 119.375 C-71.10349754 110.71799658 -65.59041162 102.09611001 -60.0690918 93.47875977 C-53.93194883 83.89909623 -47.82136791 74.3027222 -41.71777344 64.70166016 C-38.23241831 59.22000299 -34.74417465 53.74018311 -31.25610352 48.26025391 C-28.30027925 43.61615549 -25.34598162 38.97109832 -22.39453125 34.32421875 C-16.84954321 25.59648428 -11.29545564 16.87495274 -5.6875 8.1875 C-5.22512939 7.46973389 -4.76275879 6.75196777 -4.28637695 6.01245117 C-1.11988591 1.11988591 -1.11988591 1.11988591 0 0 Z M-2 8 C-7.2820084 14.71961925 -11.64645452 22.15963614 -16.14453125 29.4140625 C-19.30750597 34.50916102 -22.52664882 39.56794987 -25.75 44.625 C-26.34022949 45.55111084 -26.93045898 46.47722168 -27.53857422 47.43139648 C-28.74971165 49.33146027 -29.96097573 51.23144333 -31.17236328 53.13134766 C-32.99096228 55.98581443 -34.80654508 58.8421758 -36.62109375 61.69921875 C-42.36117921 70.73511822 -48.12282863 79.75509939 -53.95336914 88.73291016 C-57.90272833 94.82504541 -61.77962545 100.96182966 -65.64746094 107.10595703 C-68.69462647 111.94375581 -71.77003947 116.76162534 -74.875 121.5625 C-78.36673267 126.97500365 -81.73712463 132.44671407 -85 138 C-81.9545376 137.3267514 -79.25516892 136.32270076 -76.40625 135.05859375 C-75.47627197 134.64778564 -74.54629395 134.23697754 -73.58813477 133.8137207 C-72.56905029 133.35956787 -71.54996582 132.90541504 -70.5 132.4375 C-68.88532837 131.72243286 -68.88532837 131.72243286 -67.23803711 130.99291992 C-64.17421946 129.63505513 -61.11181043 128.2740959 -58.04998779 126.91174316 C-55.13423582 125.61494669 -52.21749231 124.32038688 -49.30081177 123.02568054 C-41.73532908 119.66728216 -34.17039543 116.30763649 -26.60940552 112.93913269 C-22.72074206 111.20723216 -18.82897795 109.48271957 -14.93310547 107.76708984 C-14.10262192 107.40048752 -13.27213837 107.03388519 -12.41648865 106.65617371 C-10.80995104 105.94717979 -9.20260713 105.24000946 -7.59437561 104.53486633 C-4.04727295 103.16195496 -4.04727295 103.16195496 -1 101 C-0.90476095 98.10856849 -0.87446973 95.24107936 -0.88647461 92.34936523 C-0.88632858 91.44213715 -0.88618256 90.53490906 -0.8860321 89.60018921 C-0.88673159 86.58630015 -0.89452566 83.57247207 -0.90234375 80.55859375 C-0.9042078 78.47494033 -0.90563176 76.39128646 -0.90663147 74.30763245 C-0.91045766 68.81176554 -0.9202888 63.31592487 -0.93133545 57.82006836 C-0.9415474 52.21663773 -0.94612863 46.61320287 -0.95117188 41.00976562 C-0.96191098 30.00649886 -0.97898861 19.00325161 -1 8 C-1.33 8 -1.66 8 -2 8 Z M-7.13671875 106.6953125 C-8.44322388 107.26354736 -8.44322388 107.26354736 -9.77612305 107.84326172 C-11.21725464 108.47772217 -11.21725464 108.47772217 -12.6875 109.125 C-14.20500854 109.78846436 -14.20500854 109.78846436 -15.75317383 110.46533203 C-24.91785433 114.48844691 -34.03059338 118.62462183 -43.14343262 122.76330566 C-57.00574405 129.0546292 -70.98054596 135.06812247 -85 141 C-83.57083855 145.28748436 -80.40804493 146.28903074 -76.625 148.3125 C-75.52418091 148.9161438 -75.52418091 148.9161438 -74.40112305 149.53198242 C-72.27225695 150.69719503 -70.13738967 151.85051489 -68 153 C-58.31130995 158.24747106 -48.74659604 163.6943442 -39.18798828 169.17431641 C-35.6571541 171.19633953 -32.12378373 173.21388065 -28.58984375 175.23046875 C-27.31892426 175.95588355 -26.04800954 176.68130672 -24.77709961 177.40673828 C-22.89988022 178.47823604 -21.02259276 179.54961332 -19.14505005 180.62054443 C-17.38807326 181.62281748 -15.63152921 182.62584901 -13.875 183.62890625 C-12.86179687 184.20713135 -11.84859375 184.78535645 -10.8046875 185.38110352 C-8.9370009 186.45915277 -7.08746236 187.56927985 -5.2578125 188.71069336 C-3.14387174 190.16529537 -3.14387174 190.16529537 -1 190 C-1 161.95 -1 133.9 -1 105 C-3.45184687 105 -4.88567507 105.71292546 -7.13671875 106.6953125 Z " fill="#151A33" transform="translate(257,108)"/>
<path d="M0 0 C3.68938057 0.68277141 6.5048561 2.27790956 9.7421875 4.140625 C10.87946289 4.79240723 12.01673828 5.44418945 13.18847656 6.11572266 C14.4174334 6.82694857 15.64627173 7.53837929 16.875 8.25 C18.14535208 8.98122765 19.4158616 9.71218185 20.68652344 10.44287109 C30.00939708 15.81261568 39.2815409 21.2669856 48.53125 26.76171875 C55.5650245 30.93641324 62.63637543 35.04660002 69.70800781 39.15673828 C75.1072811 42.29842069 80.47993877 45.4771127 85.81738281 48.72290039 C87.84255592 49.90787584 89.88861164 50.97825387 92 52 C91.01 52 90.02 52 89 52 C88.505 52.99 88.505 52.99 88 54 C87.10925781 53.47535156 86.21851563 52.95070313 85.30078125 52.41015625 C80.53525875 49.60438095 75.76768949 46.80209102 71 44 C69.93330078 43.37287109 68.86660156 42.74574219 67.76757812 42.09960938 C64.19989163 40.00275786 60.6315456 37.90703711 57.0625 35.8125 C56.44787903 35.45177399 55.83325806 35.09104797 55.20001221 34.71939087 C44.98904392 28.7289761 34.74693931 22.79446485 24.47485352 16.90942383 C18.90932196 13.71327374 13.41665138 10.44284174 8 7 C12.56546506 13.11306213 17.18280645 19.18549772 21.8125 25.25 C27.57635589 32.80802938 33.31157922 40.38501959 39 48 C40.93648425 50.58409538 42.87450558 53.16703708 44.8125 55.75 C47.90501281 59.87170738 50.99642818 63.99420995 54.08203125 68.12109375 C58.64134859 74.21550529 63.21377035 80.29555323 67.875 86.3125 C74.40309994 94.76062934 80.69135612 103.38748422 87 112 C86.34 112.99 85.68 113.98 85 115 C84.6282666 114.49251221 84.2565332 113.98502441 83.87353516 113.4621582 C77.0980558 104.21973621 70.29265094 95.01113096 63.27734375 85.94921875 C58.36463631 79.58713621 53.56425842 73.1419423 48.81640625 66.65625 C42.30487961 57.76684102 35.70185717 48.96996382 28.91064453 40.29199219 C24.18784072 34.25633189 19.57370822 28.14966761 15 22 C13.4383358 19.91604008 11.87583088 17.83270991 10.3125 15.75 C9.21035156 14.27660156 9.21035156 14.27660156 8.0859375 12.7734375 C6.76791081 11.02100501 5.44091033 9.27525413 4.1015625 7.5390625 C3.55242187 6.82492187 3.00328125 6.11078125 2.4375 5.375 C1.96183594 4.76398438 1.48617187 4.15296875 0.99609375 3.5234375 C0 2 0 2 0 0 Z " fill="#2B280F" transform="translate(167,263)"/>
<path d="M0 0 C0.66 0 1.32 0 2 0 C3.625 2 3.625 2 5 4 C4.67 4.66 4.34 5.32 4 6 C3.01 5.67 2.02 5.34 1 5 C0.67 37.01 0.34 69.02 0 102 C-0.66 101.67 -1.32 101.34 -2 101 C-2 70.64 -2 40.28 -2 9 C-10.46303854 21.9766591 -18.8320813 34.87735526 -26.9375 48.05859375 C-31.10083697 54.80693193 -35.42568662 61.44868314 -39.75634766 68.09033203 C-45.13533568 76.34994026 -50.42863233 84.66352392 -55.6875 93 C-61.91776677 102.87558206 -68.15754433 112.74480585 -74.45361328 122.57861328 C-75.82992786 124.73369507 -77.19531375 126.89525906 -78.55859375 129.05859375 C-79.61240234 130.70021484 -79.61240234 130.70021484 -80.6875 132.375 C-81.26886719 133.29023438 -81.85023438 134.20546875 -82.44921875 135.1484375 C-83.21685547 136.06496094 -83.21685547 136.06496094 -84 137 C-84.99 137 -85.98 137 -87 137 C-84.96988995 132.84248115 -82.60134346 128.94336137 -80.1875 125 C-79.461073 123.81229004 -79.461073 123.81229004 -78.7199707 122.60058594 C-74.60383817 115.90932954 -70.3464565 109.31640653 -66.04736328 102.74169922 C-60.20633363 93.80624318 -54.48533199 84.7959552 -48.76611328 75.78222656 C-45.8482006 71.18552585 -42.9237691 66.59297695 -40 62 C-38.83591646 60.1705863 -37.67185398 58.34115921 -36.5078125 56.51171875 C-34.14932214 52.80542555 -31.78984664 49.09976197 -29.4296875 45.39453125 C-28.24478302 43.53385967 -27.05988714 41.67318262 -25.875 39.8125 C-25.29741943 38.9059668 -24.71983887 37.99943359 -24.12475586 37.06542969 C-21.3033403 32.63365347 -18.49123054 28.19646212 -15.69921875 23.74609375 C-2.97380886 3.46350792 -2.97380886 3.46350792 0 0 Z " fill="#272330" transform="translate(257,108)"/>
<path d="M0 0 C3.970297 4.65783624 7.12471589 9.76954827 10.375 14.9375 C11.63273464 16.9258305 12.89054936 18.91411035 14.1484375 20.90234375 C15.1089502 22.42384033 15.1089502 22.42384033 16.08886719 23.97607422 C19.04784808 28.6579773 22.02424986 33.32874477 25 38 C26.16937637 39.83717241 27.33864696 41.67441216 28.5078125 43.51171875 C29.08563477 44.41970215 29.66345703 45.32768555 30.25878906 46.26318359 C31.98299368 48.97326966 33.70644183 51.68383534 35.4296875 54.39453125 C42.27469115 65.15985517 49.13875059 75.91273951 56.02099609 86.65429688 C59.30436075 91.78071612 62.5817269 96.9107505 65.84375 102.05078125 C66.45589355 103.01532227 67.06803711 103.97986328 67.69873047 104.97363281 C68.8804229 106.83602366 70.06175049 108.69864606 71.24267578 110.56152344 C74.97364981 116.43211242 78.78853271 122.22942392 82.7421875 127.953125 C84 130 84 130 84 132 C82.68 132.33 81.36 132.66 80 133 C79.58705688 131.90123535 79.58705688 131.90123535 79.16577148 130.78027344 C78.07135531 128.17017681 76.84116903 125.91416349 75.34765625 123.515625 C74.82437744 122.67201416 74.30109863 121.82840332 73.76196289 120.95922852 C72.92072876 119.6181604 72.92072876 119.6181604 72.0625 118.25 C71.47911865 117.31406006 70.8957373 116.37812012 70.29467773 115.41381836 C65.89080383 108.36917774 61.39946541 101.38430479 56.8671875 94.421875 C51.7839579 86.60316356 46.80697486 78.7159054 41.80712891 70.84375 C40.01251801 68.01969871 38.21567158 65.19708392 36.41796875 62.375 C30.44655014 53.00048839 24.48640967 43.61920775 18.56054688 34.21582031 C15.79084312 29.82396744 13.00741527 25.44126842 10.2109375 21.06640625 C9.57285156 20.06738281 8.93476563 19.06835938 8.27734375 18.0390625 C7.03422708 16.09398056 5.7895035 14.14992443 4.54296875 12.20703125 C3.97964844 11.3253125 3.41632813 10.44359375 2.8359375 9.53515625 C2.33626465 8.755354 1.8365918 7.97555176 1.32177734 7.17211914 C0.09566271 5.15720561 -0.98106135 3.12586281 -2 1 C-1.34 0.67 -0.68 0.34 0 0 Z " fill="#1F2A2A" transform="translate(262,114)"/>
<path d="M0 0 C1.32 0.66 2.64 1.32 4 2 C3.01 2.33 2.02 2.66 1 3 C1.01485221 15.20447548 1.05634361 27.40853927 1.13209057 39.61279774 C1.16641879 45.27943555 1.19147962 50.94580209 1.19555664 56.61254883 C1.19982706 62.07872025 1.22818539 67.54427912 1.27343178 73.01025963 C1.28644704 75.09826786 1.2907003 77.18634924 1.28615379 79.27439308 C1.28127642 82.1937787 1.30721247 85.11135412 1.34057617 88.03051758 C1.33195053 88.89870117 1.32332489 89.76688477 1.31443787 90.66137695 C1.30903121 93.33760861 1.30903121 93.33760861 2 97 C4.39013006 99.06829688 4.39013006 99.06829688 7 100 C7 100.33 7 100.66 7 101 C5.02 101 3.04 101 1 101 C1 129.38 1 157.76 1 187 C1.66 187.33 2.32 187.66 3 188 C1.35 187.67 -0.3 187.34 -2 187 C-1.67 158.29 -1.34 129.58 -1 100 C-1.66 100 -2.32 100 -3 100 C-3 99.34 -3 98.68 -3 98 C-2.34 98 -1.68 98 -1 98 C-1.00222061 96.78699722 -1.00444122 95.57399445 -1.00672913 94.32423401 C-1.02695872 82.91953396 -1.04197126 71.51483752 -1.05181217 60.11012363 C-1.05704146 54.24617836 -1.06413994 48.38224751 -1.07543945 42.51831055 C-1.0862667 36.86438288 -1.09227649 31.21046913 -1.09487724 25.55653191 C-1.09673179 23.3942639 -1.10035295 21.23199669 -1.10573006 19.06973457 C-1.11293833 16.05241343 -1.11399103 13.03515057 -1.11352539 10.01782227 C-1.11712067 9.1143959 -1.12071594 8.21096954 -1.12442017 7.28016663 C-1.11405216 1.11405216 -1.11405216 1.11405216 0 0 Z " fill="#060B16" transform="translate(258,112)"/>
<path d="M0 0 C0.5667041 0.38091797 1.1334082 0.76183594 1.71728516 1.15429688 C1.01982178 1.54061279 0.3223584 1.92692871 -0.39624023 2.32495117 C-18.33265279 12.26386324 -36.25263213 22.23128636 -54.02880859 32.45507812 C-54.96418457 32.99237549 -55.89956055 33.52967285 -56.86328125 34.08325195 C-58.61317705 35.08955932 -60.36168355 36.0982888 -62.10839844 37.11010742 C-67.73092848 40.34468375 -73.45237311 43.31195711 -79.28271484 46.15429688 C-79.94271484 45.49429688 -80.60271484 44.83429688 -81.28271484 44.15429688 C-80.80253906 43.89438965 -80.32236328 43.63448242 -79.82763672 43.36669922 C-68.63410221 37.29344331 -57.57253069 31.02906995 -46.59277344 24.57763672 C-38.07055216 19.58279327 -29.46935716 14.73850842 -20.83081055 9.94799805 C-19.85845459 9.40763916 -18.88609863 8.86728027 -17.88427734 8.31054688 C-16.94874023 7.79363281 -16.01320313 7.27671875 -15.04931641 6.74414062 C-11.42028725 4.65869782 -7.92700522 2.37539699 -4.45214844 0.04296875 C-2.28271484 -0.84570312 -2.28271484 -0.84570312 0 0 Z " fill="#241D2E" transform="translate(340.28271484375,253.845703125)"/>
<path d="M0 0 C4.29277144 0.5918343 7.28555953 2.11387899 11 4.3125 C12.25754951 5.04862654 13.51537956 5.78427397 14.7734375 6.51953125 C15.45374023 6.91994629 16.13404297 7.32036133 16.83496094 7.73291016 C20.74592153 10.02180117 24.68775056 12.25674021 28.625 14.5 C34.19048862 17.67533172 39.75300496 20.85563316 45.30541992 24.05377197 C47.7801779 25.47867972 50.25645154 26.90094217 52.73284912 28.32299805 C53.93182865 29.01238028 55.1301374 29.70293077 56.32769775 30.39477539 C64.09063432 34.8786989 71.93382701 39.08630055 80 43 C79.01 43.99 79.01 43.99 78 45 C74.18641088 44.65491142 71.45913857 43.32155314 68.2109375 41.3671875 C67.2825708 40.81562988 66.3542041 40.26407227 65.39770508 39.69580078 C64.4002124 39.09493652 63.40271973 38.49407227 62.375 37.875 C52.19213916 31.82890183 41.91576815 26.01073786 31.52685547 20.32763672 C24.87496218 16.66873958 18.38602885 12.83142722 11.9609375 8.79248047 C7.77051025 6.25569643 3.43141964 4.08066656 -1 2 C-0.67 1.34 -0.34 0.68 0 0 Z " fill="#1F2332" transform="translate(181,257)"/>
<path d="M0 0 C7.67097279 4.11658958 15.20729395 8.4221366 22.6875 12.875 C23.68716797 13.46796875 24.68683594 14.0609375 25.71679688 14.671875 C28.14555981 16.11286354 30.5732721 17.55558792 33 19 C30.3775669 19.76441135 29.11099018 20.02378361 26.375 19.4375 C25.59125 19.293125 24.8075 19.14875 24 19 C23.34 19.66 22.68 20.32 22 21 C21.97691403 23.22128555 21.97691403 23.22128555 22.375 25.625 C22.48585937 26.44226563 22.59671875 27.25953125 22.7109375 28.1015625 C22.80632812 28.72804688 22.90171875 29.35453125 23 30 C17.95112421 25.32805403 13.95255906 19.91136994 9.8125 14.4375 C9.08869141 13.49197266 8.36488281 12.54644531 7.61914062 11.57226562 C1.78952095 3.89885927 1.78952095 3.89885927 0 0 Z " fill="#F6F613" transform="translate(174,269)"/>
<path d="M0 0 C1.32 0 2.64 0 4 0 C4.06942477 8.70113334 4.12277271 17.40217176 4.15543652 26.10352135 C4.17111131 30.14365781 4.19238225 34.18360519 4.22631836 38.22363281 C4.25884776 42.12045787 4.27683934 46.01710074 4.28463173 49.91405106 C4.29018685 51.40286758 4.30103436 52.89167382 4.31719017 54.38041306 C4.33888007 56.46134966 4.34197061 58.54152765 4.34057617 60.62255859 C4.34723801 61.80836517 4.35389984 62.99417175 4.36076355 64.21591187 C4.24171158 65.13466095 4.12265961 66.05341003 4 67 C2.515 67.99 2.515 67.99 1 69 C-3 64.375 -3 64.375 -3 61 C-2.34 61 -1.68 61 -1 61 C-0.67 40.87 -0.34 20.74 0 0 Z " fill="#391D01" transform="translate(256,315)"/>
<path d="M0 0 C-0.5625 1.8125 -0.5625 1.8125 -2 4 C-5.50990464 5.78686054 -8.04124604 7 -12 7 C-12 7.66 -12 8.32 -12 9 C-13.72526042 9.91145833 -15.45052083 10.82291667 -17.17578125 11.734375 C-19.39218793 13.27209612 -20.55860197 14.71550595 -22 17 C-22.4300884 19.37653325 -22.4300884 19.37653325 -22.34057617 21.95214844 C-22.34034958 22.93286316 -22.34012299 23.91357788 -22.33988953 24.92401123 C-22.32440567 25.97518127 -22.30892181 27.02635132 -22.29296875 28.109375 C-22.28872391 29.19132141 -22.28447906 30.27326782 -22.28010559 31.38800049 C-22.26331845 34.8422539 -22.22566527 38.29592304 -22.1875 41.75 C-22.17245325 44.09243949 -22.15876483 46.43488813 -22.14648438 48.77734375 C-22.11341481 54.51842838 -22.06321466 60.25917245 -22 66 C-18.23569087 64.74523029 -17.94955892 63.30577382 -16 60 C-15.34 60 -14.68 60 -14 60 C-15.62120808 63.56496018 -17.7594426 66.59008822 -20.0625 69.75 C-20.77535156 70.73484375 -21.48820312 71.7196875 -22.22265625 72.734375 C-22.80917969 73.48203125 -23.39570313 74.2296875 -24 75 C-24.33 75 -24.66 75 -25 75 C-25.20891563 67.15068854 -25.36863196 59.30203271 -25.46630955 51.45063591 C-25.51320319 47.80430514 -25.57674655 44.1598814 -25.67895508 40.51464844 C-25.77705619 36.99369867 -25.83061652 33.47457711 -25.85389519 29.95236588 C-25.87851872 27.96102742 -25.94873569 25.97042114 -26.01966858 23.98019409 C-26.02460045 15.1230656 -26.02460045 15.1230656 -23.07258606 11.88735962 C-20.77162251 10.33256343 -18.52521329 9.14589119 -16 8 C-14.70118415 7.23553451 -13.40902646 6.4594381 -12.12890625 5.6640625 C-10.94201128 4.98105019 -9.75323959 4.30128746 -8.5625 3.625 C-7.95212891 3.27050781 -7.34175781 2.91601562 -6.71289062 2.55078125 C-2.24656129 0 -2.24656129 0 0 0 Z " fill="#E00D0E" transform="translate(284,303)"/>
<path d="M0 0 C9 3 9 3 11 5 C10.01 5.33 9.02 5.66 8 6 C6.02 5.01 4.04 4.02 2 3 C2 29.07 2 55.14 2 82 C4.475 81.505 4.475 81.505 7 81 C4.59660228 83.76390737 3.83736322 84.04065919 0 85 C0 56.95 0 28.9 0 0 Z " fill="#AE9ED1" transform="translate(259,213)"/>
<path d="M0 0 C3.16451962 0.63432938 5.51687779 1.73182928 8.25 3.4375 C8.95640625 3.86933594 9.6628125 4.30117188 10.390625 4.74609375 C10.92171875 5.15988281 11.4528125 5.57367188 12 6 C12 6.66 12 7.32 12 8 C10.68 7.67 9.36 7.34 8 7 C11.29746389 11.43204972 14.63339785 15.83144729 18.015625 20.19921875 C19.05589844 21.54790039 19.05589844 21.54790039 20.1171875 22.92382812 C21.55056632 24.78118255 22.98813888 26.63530736 24.4296875 28.48632812 C25.11804688 29.38158203 25.80640625 30.27683594 26.515625 31.19921875 C27.13727539 32.00190186 27.75892578 32.80458496 28.39941406 33.6315918 C30.01283032 36.01898519 31.03724799 38.29233508 32 41 C28.84040838 39.64109975 27.13163049 38.25595368 25.08203125 35.5078125 C24.55424072 34.80841553 24.0264502 34.10901855 23.48266602 33.38842773 C22.93151123 32.64149658 22.38035645 31.89456543 21.8125 31.125 C21.23878662 30.3606665 20.66507324 29.59633301 20.07397461 28.80883789 C18.37589636 26.54417949 16.68776651 24.27234745 15 22 C14.12090218 20.82859286 13.24081017 19.65793064 12.359375 18.48828125 C10.88357566 16.52807839 9.41186598 14.5647861 7.9453125 12.59765625 C6.68088245 10.90921049 5.40538621 9.2289759 4.1171875 7.55859375 C3.56289062 6.83800781 3.00859375 6.11742187 2.4375 5.375 C1.96183594 4.76398438 1.48617187 4.15296875 0.99609375 3.5234375 C0 2 0 2 0 0 Z " fill="#26250E" transform="translate(167,263)"/>
<path d="M0 0 C0 4.00278065 -1.52449993 5.48797589 -3.875 8.6875 C-4.59429687 9.68136719 -5.31359375 10.67523438 -6.0546875 11.69921875 C-7.01761719 12.83810547 -7.01761719 12.83810547 -8 14 C-8.66 14 -9.32 14 -10 14 C-10.226875 14.680625 -10.45375 15.36125 -10.6875 16.0625 C-12.31226146 19.6988709 -14.32803257 23.02829263 -17 26 C-17.66 26 -18.32 26 -19 26 C-19.23074219 26.6909375 -19.46148437 27.381875 -19.69921875 28.09375 C-21.27776614 31.62059461 -23.43824504 34.48585011 -25.8125 37.5 C-26.45155273 38.33337891 -26.45155273 38.33337891 -27.10351562 39.18359375 C-29.8530854 42.71934913 -32.77271599 45.89439097 -36 49 C-35.6875 46.625 -35.6875 46.625 -35 44 C-34.01 43.34 -33.02 42.68 -32 42 C-31.27034634 39.43717258 -31.27034634 39.43717258 -31 37 C-29.515 36.505 -29.515 36.505 -28 36 C-27.67 35.01 -27.34 34.02 -27 33 C-26.34 33 -25.68 33 -25 33 C-24.67 30.69 -24.34 28.38 -24 26 C-23.21625 25.731875 -22.4325 25.46375 -21.625 25.1875 C-18.71885077 24.15185568 -18.71885077 24.15185568 -17 21 C-16.34 21 -15.68 21 -15 21 C-14.566875 19.88625 -14.566875 19.88625 -14.125 18.75 C-13.17697356 16.43260203 -12.15154089 14.22082885 -11 12 C-10.34 12 -9.68 12 -9 12 C-9 11.01 -9 10.02 -9 9 C-8.34 9 -7.68 9 -7 9 C-7 8.34 -7 7.68 -7 7 C-6.34 7 -5.68 7 -5 7 C-5 6.01 -5 5.02 -5 4 C-2.5 1.8125 -2.5 1.8125 0 0 Z " fill="#CE0F12" transform="translate(312,306)"/>
<path d="M0 0 C0 3.53862769 -0.78892251 4.55898774 -2.75 7.4375 C-3.26046875 8.19933594 -3.7709375 8.96117187 -4.296875 9.74609375 C-6 12 -6 12 -7.96484375 13.9609375 C-10.21419195 16.21460307 -11.97234796 18.59029966 -13.8125 21.1875 C-17.42128143 26.22489847 -21.15867454 31.13832247 -25 36 C-25 29.68982067 -21.22252964 26.22252964 -17 22 C-15.20679176 18.83354526 -15.20679176 18.83354526 -14 16 C-13.34 16 -12.68 16 -12 16 C-12.33 15.01 -12.66 14.02 -13 13 C-12.01 13 -11.02 13 -10 13 C-10.66 12.01 -11.32 11.02 -12 10 C-13.65 10.33 -15.3 10.66 -17 11 C-14.20957375 7.71165383 -10.52671824 5.87264311 -6.8125 3.8125 C-6.15830078 3.44447266 -5.50410156 3.07644531 -4.83007812 2.69726562 C-3.22253039 1.7937534 -1.61159349 0.8962759 0 0 Z M-10 7 C-10 7.66 -10 8.32 -10 9 C-8.68 9 -7.36 9 -6 9 C-6 8.01 -6 7.02 -6 6 C-8.0745356 5.8509288 -8.0745356 5.8509288 -10 7 Z " fill="#CE0F10" transform="translate(339,270)"/>
<path d="M0 0 C0.66 0 1.32 0 2 0 C2.2246285 1.39330381 2.4289245 2.78989209 2.625 4.1875 C2.74101562 4.96480469 2.85703125 5.74210938 2.9765625 6.54296875 C3.00561087 9.58820606 2.48931487 11.34019719 1 14 C-1.27734375 15.6171875 -1.27734375 15.6171875 -3.9375 16.875 C-4.81277344 17.30554688 -5.68804687 17.73609375 -6.58984375 18.1796875 C-9 19 -9 19 -12 18 C-11.30132812 16.95199219 -10.60265625 15.90398437 -9.8828125 14.82421875 C-9.44066406 14.16099609 -8.99851563 13.49777344 -8.54296875 12.81445312 C-7.15625 10.734375 -5.76953125 8.65429688 -4.3828125 6.57421875 C-3.97434082 5.96151123 -3.56586914 5.34880371 -3.14501953 4.7175293 C-2.09667969 3.14501953 -1.04833984 1.57250977 0 0 Z " fill="#C6BBED" transform="translate(184,227)"/>
<path d="M0 0 C0.33 0 0.66 0 1 0 C1 30.69 1 61.38 1 93 C0.67 93 0.34 93 0 93 C-0.33 64.62 -0.66 36.24 -1 7 C-1.66 6.67 -2.32 6.34 -3 6 C-3 6.66 -3 7.32 -3 8 C-3.66 7.67 -4.32 7.34 -5 7 C-4.19152271 5.83054208 -3.37810888 4.66449539 -2.5625 3.5 C-2.11003906 2.8503125 -1.65757812 2.200625 -1.19140625 1.53125 C-0.79824219 1.0259375 -0.40507812 0.520625 0 0 Z " fill="#C5BAE5" transform="translate(255,116)"/>
<path d="M0 0 C0 28.05 0 56.1 0 85 C-1.65 84.34 -3.3 83.68 -5 83 C-3.02 82.505 -3.02 82.505 -1 82 C-1.33 55.93 -1.66 29.86 -2 3 C-3.65 3 -5.3 3 -7 3 C-2.5 0 -2.5 0 0 0 Z " fill="#7C95D0" transform="translate(256,213)"/>
<path d="M0 0 C0.33 0 0.66 0 1 0 C1 19.8 1 39.6 1 60 C-0.65 58.35 -2.3 56.7 -4 55 C-2.02 54.505 -2.02 54.505 0 54 C0 36.18 0 18.36 0 0 Z " fill="#F0EF35" transform="translate(255,317)"/>
<path d="M0 0 C0.66 0.33 1.32 0.66 2 1 C1.34 1.66 0.68 2.32 0 3 C-0.33159285 5.46620164 -0.33159285 5.46620164 -0.31884766 8.36767578 C-0.33871735 9.48868683 -0.35858704 10.60969788 -0.37905884 11.76467896 C-0.39638565 13.58659256 -0.39638565 13.58659256 -0.4140625 15.4453125 C-0.43342865 16.68546112 -0.4527948 17.92560974 -0.4727478 19.20333862 C-0.5224881 22.50111779 -0.56372477 25.79886139 -0.60089111 29.09680176 C-0.64089002 32.46177334 -0.69200103 35.82657392 -0.7421875 39.19140625 C-0.83839787 45.79416107 -0.92340383 52.39699011 -1 59 C-0.34 59 0.32 59 1 59 C0.34 60.32 -0.32 61.64 -1 63 C-1.33 63 -1.66 63 -2 63 C-2.04628946 55.08114422 -2.08185182 47.16234474 -2.10362434 39.24338722 C-2.11407274 35.5665065 -2.12825102 31.88971817 -2.15087891 28.21289062 C-2.17256991 24.66620345 -2.18456067 21.11960528 -2.18975449 17.5728569 C-2.193457 16.21802748 -2.20068689 14.86320306 -2.21146011 13.50841141 C-2.22592448 11.61454243 -2.22681649 9.72058436 -2.22705078 7.82666016 C-2.23371262 6.20783432 -2.23371262 6.20783432 -2.24050903 4.55630493 C-2 2 -2 2 0 0 Z " fill="#9A1416" transform="translate(261,315)"/>
<path d="M0 0 C1.41791408 0.45445964 2.83428046 0.91374944 4.25 1.375 C5.43335938 1.75785156 5.43335938 1.75785156 6.640625 2.1484375 C8.86627958 2.95173667 10.90931672 3.89711662 13 5 C10.07096942 7.33364352 7.11431797 9.04960836 3.75 10.6875 C2.41195313 11.34298828 2.41195313 11.34298828 1.046875 12.01171875 C0.37140625 12.33785156 -0.3040625 12.66398437 -1 13 C-0.649375 12.21625 -0.29875 11.4325 0.0625 10.625 C0.371875 9.75875 0.68125 8.8925 1 8 C0.67 7.34 0.34 6.68 0 6 C1.32 5.67 2.64 5.34 4 5 C3.67 4.34 3.34 3.68 3 3 C2.01 2.67 1.02 2.34 0 2 C0 1.34 0 0.68 0 0 Z " fill="#BFA7E4" transform="translate(331,245)"/>
<path d="M0 0 C6.68412752 3.63566563 13.35556707 7.29224236 20 11 C17 12 17 12 14.95703125 11.22265625 C14.24933594 10.83980469 13.54164063 10.45695312 12.8125 10.0625 C12.09707031 9.68222656 11.38164062 9.30195313 10.64453125 8.91015625 C10.10183594 8.60980469 9.55914062 8.30945313 9 8 C9.66 9.98 10.32 11.96 11 14 C7.11807874 10.23225289 3.20468119 6.37202211 0 2 C0 1.34 0 0.68 0 0 Z " fill="#D9D840" transform="translate(174,269)"/>
<path d="M0 0 C-1.18929471 3.56788413 -1.83973271 3.75985607 -5.03515625 5.48046875 C-5.84404297 5.92197266 -6.65292969 6.36347656 -7.48632812 6.81835938 C-8.33646484 7.27017578 -9.18660156 7.72199219 -10.0625 8.1875 C-10.91650391 8.65091797 -11.77050781 9.11433594 -12.65039062 9.59179688 C-14.76252727 10.73636254 -16.87901067 11.87194884 -19 13 C-19.99 12.34 -20.98 11.68 -22 11 C-18.7121022 9.15984502 -15.41908674 7.32904953 -12.125 5.5 C-11.18785156 4.97535156 -10.25070312 4.45070313 -9.28515625 3.91015625 C-8.38925781 3.41386719 -7.49335938 2.91757812 -6.5703125 2.40625 C-5.74289551 1.94541016 -4.91547852 1.48457031 -4.06298828 1.00976562 C-2 0 -2 0 0 0 Z " fill="#1E1826" transform="translate(281,287)"/>
<path d="M0 0 C0.66 0.33 1.32 0.66 2 1 C1.67 1.66 1.34 2.32 1 3 C0.34 3 -0.32 3 -1 3 C-1 3.66 -1 4.32 -1 5 C1.64 5 4.28 5 7 5 C7 5.99 7 6.98 7 8 C9.44496043 9.71711243 9.44496043 9.71711243 12 11 C11.67 11.66 11.34 12.32 11 13 C5.72 10.03 0.44 7.06 -5 4 C-5 3.34 -5 2.68 -5 2 C-2.625 0.9375 -2.625 0.9375 0 0 Z " fill="#7B92CD" transform="translate(177,247)"/>
<path d="M0 0 C0.33 0.99 0.66 1.98 1 3 C0.67 3.66 0.34 4.32 0 5 C0.66 5 1.32 5 2 5 C2 4.34 2 3.68 2 3 C2.99 3.33 3.98 3.66 5 4 C4.34 4 3.68 4 3 4 C5.7819368 7.27286682 9.27954067 8.96427697 13 11 C12.67 11.66 12.34 12.32 12 13 C6.68972746 11.53967505 2.53669968 9.01679014 -2 6 C-1.49396008 3.83125748 -1.00016187 2.00032373 0 0 Z " fill="#191F2E" transform="translate(169,245)"/>
<path d="M0 0 C-0.5625 1.8125 -0.5625 1.8125 -2 4 C-5.50990464 5.78686054 -8.04124604 7 -12 7 C-12 7.66 -12 8.32 -12 9 C-14.25 10.6875 -14.25 10.6875 -17 12 C-19.171875 11.58203125 -19.171875 11.58203125 -21 11 C-17.87907566 9.15966024 -14.75261783 7.32893744 -11.625 5.5 C-10.73554688 4.97535156 -9.84609375 4.45070313 -8.9296875 3.91015625 C-7.65351563 3.16572266 -7.65351563 3.16572266 -6.3515625 2.40625 C-5.56604004 1.94541016 -4.78051758 1.48457031 -3.97119141 1.00976562 C-2 0 -2 0 0 0 Z " fill="#B41014" transform="translate(284,303)"/>
<path d="M0 0 C5.96416751 0.93190117 11.69971806 3.12901395 17 6 C17 6.66 17 7.32 17 8 C17.99 8.66 18.98 9.32 20 10 C17 11 17 11 15.09887695 10.21142578 C14.40238037 9.7936084 13.70588379 9.37579102 12.98828125 8.9453125 C12.23095703 8.49542969 11.47363281 8.04554688 10.69335938 7.58203125 C9.90767578 7.10121094 9.12199219 6.62039063 8.3125 6.125 C7.51521484 5.65191406 6.71792969 5.17882812 5.89648438 4.69140625 C1.64008067 2.13537939 1.64008067 2.13537939 0 1 C0 0.67 0 0.34 0 0 Z " fill="#7A93CF" transform="translate(193,262)"/>
<path d="M0 0 C-10.37357631 5.74031891 -10.37357631 5.74031891 -16 5 C-16 5.66 -16 6.32 -16 7 C-16.66 7 -17.32 7 -18 7 C-17.34 5.02 -16.68 3.04 -16 1 C-15.67 1.66 -15.34 2.32 -15 3 C-13.87851563 2.54947266 -13.87851563 2.54947266 -12.734375 2.08984375 C-11.74953125 1.70957031 -10.7646875 1.32929688 -9.75 0.9375 C-8.77546875 0.55464844 -7.8009375 0.17179688 -6.796875 -0.22265625 C-3.95992605 -1.01113787 -2.70590448 -1.02437812 0 0 Z " fill="#0B0F1F" transform="translate(187,243)"/>
<path d="M0 0 C4.20532472 1.52394795 6.25004166 4.6152865 8.75 8.125 C9.36681641 8.96998047 9.36681641 8.96998047 9.99609375 9.83203125 C11.00476085 11.21601634 12.00339286 12.60730541 13 14 C12.01 15.485 12.01 15.485 11 17 C9.15895764 14.54735411 7.32852207 12.08699041 5.5 9.625 C4.71302734 8.57699219 4.71302734 8.57699219 3.91015625 7.5078125 C3.41386719 6.8375 2.91757813 6.1671875 2.40625 5.4765625 C1.94541016 4.85861816 1.48457031 4.24067383 1.00976562 3.60400391 C0 2 0 2 0 0 Z " fill="#29230F" transform="translate(241,361)"/>
<path d="M0 0 C3.16451962 0.63432938 5.51687779 1.73182928 8.25 3.4375 C8.95640625 3.86933594 9.6628125 4.30117188 10.390625 4.74609375 C10.92171875 5.15988281 11.4528125 5.57367188 12 6 C12 6.66 12 7.32 12 8 C11.4225 7.814375 10.845 7.62875 10.25 7.4375 C7.79307475 6.95976454 6.35602466 7.24270636 4 8 C0 2.25 0 2.25 0 0 Z " fill="#191915" transform="translate(167,263)"/>
<path d="M0 0 C3.44237224 1.72118612 4.40533024 4.68457727 6.125 8.0625 C1.40434033 6.51980076 -3.29164092 4.98455381 -7.875 3.0625 C-7.25625 2.93875 -6.6375 2.815 -6 2.6875 C-3.39816331 1.92225392 -2.69327835 0.08977594 0 0 Z " fill="#A4DCD6" transform="translate(336.875,237.9375)"/>
<path d="M0 0 C-0.60803426 3.12308506 -1.62014042 5.19251662 -3.5 7.75 C-4.16515625 8.67039062 -4.16515625 8.67039062 -4.84375 9.609375 C-5.2253125 10.06828125 -5.606875 10.5271875 -6 11 C-6.33 11 -6.66 11 -7 11 C-7 9.35 -7 7.7 -7 6 C-8.32 5.67 -9.64 5.34 -11 5 C-9.54462432 4.16151196 -8.08559627 3.32936066 -6.625 2.5 C-5.81289063 2.0359375 -5.00078125 1.571875 -4.1640625 1.09375 C-2 0 -2 0 0 0 Z " fill="#1D1C1A" transform="translate(348,263)"/>
<path d="M0 0 C1.12313713 4.49254851 1.13530555 5.08527315 -1 9 C-3.23247665 11.76230406 -5.58444248 14.39713989 -8 17 C-8.66 16.67 -9.32 16.34 -10 16 C-6.7 10.72 -3.4 5.44 0 0 Z " fill="#C2B8E1" transform="translate(229,156)"/>
<path d="M0 0 C0.33 0 0.66 0 1 0 C0.85562749 6.92988052 -2.22255343 10.19760593 -7 15 C-7.99 14.67 -8.98 14.34 -10 14 C-9.36191406 13.15695312 -8.72382813 12.31390625 -8.06640625 11.4453125 C-7.23168643 10.33860532 -6.39705563 9.23183099 -5.5625 8.125 C-5.14162109 7.56941406 -4.72074219 7.01382812 -4.28710938 6.44140625 C-1.94254056 3.34907114 -1.94254056 3.34907114 0 0 Z " fill="#420D0C" transform="translate(293,332)"/>
<path d="M0 0 C5.77372322 2.83458444 11.45217559 5.74366828 17 9 C13.85843408 10.38228901 12.76056055 9.91178547 9.4375 8.6875 C6 7 6 7 3 5 C3 4.34 3 3.68 3 3 C2.01 2.67 1.02 2.34 0 2 C0 1.34 0 0.68 0 0 Z " fill="#EDEE2B" transform="translate(230,302)"/>
<path d="M0 0 C0 0.66 0 1.32 0 2 C-2.12282669 3.00460531 -4.24833021 4.00355602 -6.375 5 C-8.15003906 5.8353125 -8.15003906 5.8353125 -9.9609375 6.6875 C-13 8 -13 8 -15 8 C-14.0007455 5.44276805 -13.33618056 4.2102751 -10.9765625 2.734375 C-9.81253906 2.24710938 -9.81253906 2.24710938 -8.625 1.75 C-7.85414063 1.41484375 -7.08328125 1.0796875 -6.2890625 0.734375 C-4 0 -4 0 0 0 Z " fill="#0D0F23" transform="translate(246,215)"/>
<path d="M0 0 C3.82909291 1.47336836 5.21383678 3.43591628 7.25 6.9375 C7.77078125 7.81277344 8.2915625 8.68804687 8.828125 9.58984375 C10 12 10 12 10 15 C9.34 15 8.68 15 8 15 C6.52690889 12.89980986 5.18690365 10.82232271 3.875 8.625 C3.50246094 8.02171875 3.12992187 7.4184375 2.74609375 6.796875 C0 2.27034684 0 2.27034684 0 0 Z " fill="#1B2827" transform="translate(292,164)"/>
<path d="M0 0 C0 3 0 3 -2 5.1875 C-2.66 5.785625 -3.32 6.38375 -4 7 C-4 6.34 -4 5.68 -4 5 C-5.98 5.66 -7.96 6.32 -10 7 C-10 7.66 -10 8.32 -10 9 C-10.99 9.66 -11.98 10.32 -13 11 C-14.32 10.67 -15.64 10.34 -17 10 C-8.585 5.05 -8.585 5.05 0 0 Z " fill="#B71417" transform="translate(339,270)"/>
<path d="M0 0 C1.32 0 2.64 0 4 0 C3.84660156 0.74507813 3.69320313 1.49015625 3.53515625 2.2578125 C2.79227733 7.45254245 2.63432751 12.63487087 2.4375 17.875 C2.39431641 18.94492187 2.35113281 20.01484375 2.30664062 21.1171875 C2.20107183 23.74467754 2.09896209 26.37225422 2 29 C1.67 29 1.34 29 1 29 C0.67 19.43 0.34 9.86 0 0 Z " fill="#1B0000" transform="translate(256,315)"/>
<path d="M0 0 C4.20240011 3.71750779 6.99782679 8.31660979 10 13 C9.01 13.33 8.02 13.66 7 14 C5.81856904 12.61664079 4.65534866 11.21771574 3.5 9.8125 C2.8503125 9.03519531 2.200625 8.25789063 1.53125 7.45703125 C-0.1952605 4.68668659 -0.31838702 3.20092666 0 0 Z " fill="#332E13" transform="translate(233,348)"/>
<path d="M0 0 C-1 3 -1 3 -3.75 4.6875 C-6.85020705 5.93950669 -8.71671912 6.28970125 -12 6 C-12 5.34 -12 4.68 -12 4 C-10.75539217 3.32332002 -9.50403104 2.65905281 -8.25 2 C-7.55390625 1.62875 -6.8578125 1.2575 -6.140625 0.875 C-4 0 -4 0 0 0 Z " fill="#12162A" transform="translate(207,232)"/>
<path d="M0 0 C5.28137429 0.51525603 8.57221156 2.25477117 13 5 C13 5.66 13 6.32 13 7 C8.6570138 6.34197179 4.92722404 4.96361202 1 3 C0.67 2.01 0.34 1.02 0 0 Z " fill="#111522" transform="translate(274,217)"/>
<path d="M0 0 C0.66 0.33 1.32 0.66 2 1 C-1.74427866 5.19813062 -4.8403063 7.07776117 -10 9 C-10.66 8.34 -11.32 7.68 -12 7 C-10.04754815 5.80285445 -8.08785003 4.61751926 -6.125 3.4375 C-5.03445313 2.77621094 -3.94390625 2.11492187 -2.8203125 1.43359375 C-1.88960938 0.96050781 -0.95890625 0.48742187 0 0 Z " fill="#411C1C" transform="translate(318,279)"/>
<path d="M0 0 C3.45195767 1.4258086 5.1014256 3.09746334 7.25 6.125 C8.03117188 7.21167969 8.03117188 7.21167969 8.828125 8.3203125 C9.40820312 9.15175781 9.40820312 9.15175781 10 10 C9.34 10.66 8.68 11.32 8 12 C6.66081194 10.37982158 5.3288031 8.75370657 4 7.125 C3.2575 6.22007812 2.515 5.31515625 1.75 4.3828125 C0 2 0 2 0 0 Z " fill="#211E0C" transform="translate(216,328)"/>
<path d="M0 0 C0.33 0.66 0.66 1.32 1 2 C-1.1653147 5.35997108 -3.16032769 8.16032769 -6 11 C-5.67 8.03 -5.34 5.06 -5 2 C-3.35 1.34 -1.7 0.68 0 0 Z " fill="#DB0B0D" transform="translate(293,330)"/>
<path d="M0 0 C0.33 0.66 0.66 1.32 1 2 C1.66 1.67 2.32 1.34 3 1 C4.99960012 0.960008 7.00047242 0.95653201 9 1 C5.87218586 3.52631142 2.70422589 5.42373366 -1 7 C-1.99 6.67 -2.98 6.34 -4 6 C-2.68 4.02 -1.36 2.04 0 0 Z " fill="#B7AFD6" transform="translate(176,239)"/>
<path d="M0 0 C0.99 0 1.98 0 3 0 C3.94401042 1.7578125 4.88802083 3.515625 5.83203125 5.2734375 C7.04763493 7.30502365 7.04763493 7.30502365 10 9 C10.6875 11.125 10.6875 11.125 11 13 C10.01 13.495 10.01 13.495 9 14 C7.6827656 12.23268551 6.37136412 10.46102239 5.0625 8.6875 C4.33160156 7.70136719 3.60070312 6.71523438 2.84765625 5.69921875 C1 3 1 3 0 0 Z " fill="#E5E631" transform="translate(234,348)"/>
<path d="M0 0 C0.66 0.33 1.32 0.66 2 1 C2 1.99 2 2.98 2 4 C-2.455 5.485 -2.455 5.485 -7 7 C-7 6.34 -7 5.68 -7 5 C-7.66 4.67 -8.32 4.34 -9 4 C-7.54618103 3.30300448 -6.08677047 2.61766134 -4.625 1.9375 C-3.40683594 1.36322266 -3.40683594 1.36322266 -2.1640625 0.77734375 C-1.44992188 0.52082031 -0.73578125 0.26429688 0 0 Z " fill="#21233B" transform="translate(214,227)"/>
<path d="M0 0 C2.96404505 2.80804268 5.44499019 5.18315774 7 9 C6.34 9.66 5.68 10.32 5 11 C2.69 8.03 0.38 5.06 -2 2 C-1.34 1.34 -0.68 0.68 0 0 Z " fill="#343112" transform="translate(199,303)"/>
<path d="M0 0 C2.475 0.495 2.475 0.495 5 1 C5.33 2.65 5.66 4.3 6 6 C6.66 6 7.32 6 8 6 C7.67 7.32 7.34 8.64 7 10 C5.82739389 8.71372289 4.6620717 7.42080217 3.5 6.125 C2.8503125 5.40570313 2.200625 4.68640625 1.53125 3.9453125 C0 2 0 2 0 0 Z " fill="#EBEF28" transform="translate(197,299)"/>
<path d="M0 0 C1.32 0 2.64 0 4 0 C4 1.32 4 2.64 4 4 C7.465 3.505 7.465 3.505 11 3 C10.67 3.99 10.34 4.98 10 6 C7 7 7 7 4.73828125 6.00390625 C3.93777344 5.52824219 3.13726562 5.05257813 2.3125 4.5625 C1.50425781 4.08941406 0.69601563 3.61632812 -0.13671875 3.12890625 C-0.75160156 2.75636719 -1.36648437 2.38382812 -2 2 C-1.34 1.34 -0.68 0.68 0 0 Z " fill="#7C97D8" transform="translate(242,288)"/>
<path d="M0 0 C1.32 0.66 2.64 1.32 4 2 C-0.95 4.475 -0.95 4.475 -6 7 C-6.99 6.34 -7.98 5.68 -9 5 C-7.59546357 4.10565843 -6.17578131 3.23506808 -4.75 2.375 C-3.96109375 1.88773438 -3.1721875 1.40046875 -2.359375 0.8984375 C-1.19148438 0.45371094 -1.19148438 0.45371094 0 0 Z " fill="#2C263A" transform="translate(338,253)"/>
<path d="M0 0 C3.82773086 0.42530343 7.3756723 1.73569964 11 3 C10.01 3.33 9.02 3.66 8 4 C7.67 4.66 7.34 5.32 7 6 C2.545 4.02 2.545 4.02 -2 2 C-1.34 1.34 -0.68 0.68 0 0 Z " fill="#222736" transform="translate(313,234)"/>
<path d="M0 0 C0.99 0.33 1.98 0.66 3 1 C0.36 4.63 -2.28 8.26 -5 12 C-5.33 11.01 -5.66 10.02 -6 9 C-4.22445479 5.51013529 -2.75847687 2.75847687 0 0 Z " fill="#341516" transform="translate(283,347)"/>
<path d="M0 0 C2.97 0.495 2.97 0.495 6 1 C6.66 3.31 7.32 5.62 8 8 C7.01 8 6.02 8 5 8 C3.61328125 6.25 3.61328125 6.25 2.3125 4 C1.87550781 3.2575 1.43851563 2.515 0.98828125 1.75 C0.66214844 1.1725 0.33601562 0.595 0 0 Z " fill="#E5E72B" transform="translate(244,362)"/>
<path d="M0 0 C-1.92989218 1.19982444 -3.86919228 2.38452818 -5.8125 3.5625 C-7.43091797 4.55443359 -7.43091797 4.55443359 -9.08203125 5.56640625 C-12 7 -12 7 -15 6 C-12.62475751 3.24971922 -10.3840076 2.23805156 -7 1 C-6.29875 0.608125 -5.5975 0.21625 -4.875 -0.1875 C-3 -1 -3 -1 0 0 Z " fill="#B8A5DD" transform="translate(326,261)"/>
<path d="M0 0 C5.63470383 -0.5497272 8.38987758 1.04952165 13 4 C11.296875 5.1484375 11.296875 5.1484375 9 6 C6.640625 5.1015625 6.640625 5.1015625 4.25 3.625 C3.45078125 3.14289063 2.6515625 2.66078125 1.828125 2.1640625 C1.22484375 1.77992188 0.6215625 1.39578125 0 1 C0 0.67 0 0.34 0 0 Z " fill="#242B3C" transform="translate(210,275)"/>
<path d="M0 0 C0.33 0.99 0.66 1.98 1 3 C-1.64 3.99 -4.28 4.98 -7 6 C-7 5.34 -7 4.68 -7 4 C-7.66 3.67 -8.32 3.34 -9 3 C-3.375 0 -3.375 0 0 0 Z " fill="#1C1E35" transform="translate(253,211)"/>
<path d="M0 0 C0 0.66 0 1.32 0 2 C-0.66 2 -1.32 2 -2 2 C-2.33 3.32 -2.66 4.64 -3 6 C-5.31 6 -7.62 6 -10 6 C-4.4 0 -4.4 0 0 0 Z " fill="#C40F0F" transform="translate(294,297)"/>
<path d="M0 0 C0 0.66 0 1.32 0 2 C-1.39077301 2.82113177 -2.78788893 3.63152495 -4.1875 4.4375 C-4.96480469 4.88996094 -5.74210937 5.34242188 -6.54296875 5.80859375 C-9.04931977 7.02391499 -11.25790365 7.57626575 -14 8 C-11.72402354 5.50447597 -9.39278822 3.93377014 -6.4375 2.3125 C-5.65246094 1.87550781 -4.86742187 1.43851562 -4.05859375 0.98828125 C-2 0 -2 0 0 0 Z " fill="#BF1212" transform="translate(322,281)"/>
<path d="M0 0 C0.66 0 1.32 0 2 0 C0.52307692 6.52307692 0.52307692 6.52307692 -2.125 8.9375 C-2.74375 9.288125 -3.3625 9.63875 -4 10 C-4.66 9.67 -5.32 9.34 -6 9 C-5.05016642 7.49460339 -4.08988109 5.99579653 -3.125 4.5 C-2.59132812 3.6646875 -2.05765625 2.829375 -1.5078125 1.96875 C-0.76144531 0.99421875 -0.76144531 0.99421875 0 0 Z " fill="#BEB6DD" transform="translate(249,125)"/>
<path d="M0 0 C0.66 0 1.32 0 2 0 C0.23867546 4.00301032 -2.26132483 7.6028977 -5 11 C-5.33 11 -5.66 11 -6 11 C-6 9.35 -6 7.7 -6 6 C-5.01 5.67 -4.02 5.34 -3 5 C-1.98812105 3.34051852 -0.9873454 1.67419438 0 0 Z " fill="#CD0E11" transform="translate(268,363)"/>
<path d="M0 0 C1.98270912 0.95098266 3.96108379 1.91100703 5.9375 2.875 C7.03964844 3.40867187 8.14179688 3.94234375 9.27734375 4.4921875 C12 6 12 6 13 8 C9.11112207 7.45987807 7.07816522 6.35992667 4 4 C3.01 4 2.02 4 1 4 C0.67 2.68 0.34 1.36 0 0 Z " fill="#E4E433" transform="translate(194,281)"/>
<path d="M0 0 C2.66735273 2.48952921 4.55746343 4.63408134 6 8 C5.34 8 4.68 8 4 8 C3.67 8.99 3.34 9.98 3 11 C0.43383368 7.15075052 0.44902324 4.5650696 0 0 Z " fill="#A2E6E1" transform="translate(331,228)"/>
<path d="M0 0 C0.33 0 0.66 0 1 0 C1 2.97 1 5.94 1 9 C-0.32 8.01 -1.64 7.02 -3 6 C-3 6.66 -3 7.32 -3 8 C-3.66 7.67 -4.32 7.34 -5 7 C-4.19152271 5.83054208 -3.37810888 4.66449539 -2.5625 3.5 C-2.11003906 2.8503125 -1.65757812 2.200625 -1.19140625 1.53125 C-0.79824219 1.0259375 -0.40507812 0.520625 0 0 Z " fill="#BAB2D7" transform="translate(255,116)"/>
<path d="M0 0 C0.33 0.66 0.66 1.32 1 2 C2.94603274 2.59070014 2.94603274 2.59070014 5 3 C5.66 3.33 6.32 3.66 7 4 C6.34 5.32 5.68 6.64 5 8 C2.5 5.6875 2.5 5.6875 0 3 C0 2.01 0 1.02 0 0 Z " fill="#0F0F0D" transform="translate(253,376)"/>
<path d="M0 0 C0.33 0.99 0.66 1.98 1 3 C0.67 3.66 0.34 4.32 0 5 C0.66 5 1.32 5 2 5 C2 4.34 2 3.68 2 3 C2.99 3.33 3.98 3.66 5 4 C4.34 4 3.68 4 3 4 C3.33 4.99 3.66 5.98 4 7 C3.01 7.33 2.02 7.66 1 8 C0.01 7.34 -0.98 6.68 -2 6 C-1.49396008 3.83125748 -1.00016187 2.00032373 0 0 Z " fill="#22242B" transform="translate(169,245)"/>
<path d="M0 0 C2.64 0.99 5.28 1.98 8 3 C7.34 3.66 6.68 4.32 6 5 C5.67 5.66 5.34 6.32 5 7 C4.34 7 3.68 7 3 7 C0 2.61538462 0 2.61538462 0 0 Z " fill="#BEA6E5" transform="translate(321,240)"/>
<path d="M0 0 C0.33 0.66 0.66 1.32 1 2 C0.36328125 3.875 0.36328125 3.875 -0.6875 6 C-1.18830078 7.051875 -1.18830078 7.051875 -1.69921875 8.125 C-3.21910635 10.31582897 -4.55687434 11.01246289 -7 12 C-6.02296079 10.1863523 -5.04330895 8.37411183 -4.0625 6.5625 C-3.51722656 5.55316406 -2.97195312 4.54382813 -2.41015625 3.50390625 C-1 1 -1 1 0 0 Z " fill="#B5ADD3" transform="translate(201,200)"/>
<path d="M0 0 C0.33 0.66 0.66 1.32 1 2 C-0.65 4.31 -2.3 6.62 -4 9 C-4.66 8.67 -5.32 8.34 -6 8 C-4.55746343 4.63408134 -2.66735273 2.48952921 0 0 Z " fill="#2A1011" transform="translate(265,372)"/>
<path d="M0 0 C2.52588702 2.36292656 3.88820837 3.66462511 5 7 C4.01 8.485 4.01 8.485 3 10 C2.30289269 8.71349294 1.61757124 7.42059335 0.9375 6.125 C0.36322266 5.04605469 0.36322266 5.04605469 -0.22265625 3.9453125 C-0.47917969 3.30335938 -0.73570312 2.66140625 -1 2 C-0.67 1.34 -0.34 0.68 0 0 Z " fill="#273335" transform="translate(310,190)"/>
<path d="M0 0 C-2.35277269 2.72426311 -4.62496331 3.8141763 -8 5 C-8.66 4.34 -9.32 3.68 -10 3 C-3.375 -1.125 -3.375 -1.125 0 0 Z " fill="#231D2D" transform="translate(269,295)"/>
<path d="M0 0 C-2.54456151 2.96865509 -5.48994665 4.3619751 -9 6 C-8.6875 4.125 -8.6875 4.125 -8 2 C-4.77208445 -0.1519437 -3.71599191 -0.20086443 0 0 Z " fill="#3A1111" transform="translate(328,276)"/>
<path d="M0 0 C2.31 0.66 4.62 1.32 7 2 C7 2.99 7 3.98 7 5 C3.31245243 4.50168276 1.39509338 3.89932357 -1 1 C-0.67 0.67 -0.34 0.34 0 0 Z " fill="#111523" transform="translate(298,227)"/>
<path d="M0 0 C0.66 0.66 1.32 1.32 2 2 C1.64644564 4.26274788 1.02455574 5.95088852 0 8 C-4 3.25 -4 3.25 -4 1 C-2.125 0.375 -2.125 0.375 0 0 Z " fill="#EDED29" transform="translate(214,315)"/>
<path d="M0 0 C3.16717283 1.58358642 4.73268318 2.45263699 6.3125 5.6875 C6.539375 6.450625 6.76625 7.21375 7 8 C3.64379729 6.61122646 1.92701272 5.08322035 0 2 C0 1.34 0 0.68 0 0 Z " fill="#1F1D09" transform="translate(192,296)"/>
<path d="M0 0 C0 2.31 0 4.62 0 7 C-1.65 5.35 -3.3 3.7 -5 2 C-1.125 0 -1.125 0 0 0 Z " fill="#E5E73A" transform="translate(256,370)"/>
<path d="M0 0 C3.16115776 1.36983503 3.9927092 1.9890638 6 5 C5.67 5.99 5.34 6.98 5 8 C0 2.25 0 2.25 0 0 Z " fill="#1E1C0A" transform="translate(241,361)"/>
<path d="M0 0 C1.32 0 2.64 0 4 0 C4.66 1.98 5.32 3.96 6 6 C5.01 6 4.02 6 3 6 C0 2.66666667 0 2.66666667 0 0 Z " fill="#DFE12B" transform="translate(218,327)"/>
<path d="M0 0 C0.77321882 2.98241547 1.41196203 5.97580475 2 9 C0.35 7.35 -1.3 5.7 -3 4 C-2.67 3.01 -2.34 2.02 -2 1 C-1.34 0.67 -0.68 0.34 0 0 Z " fill="#ECEC2B" transform="translate(195,290)"/>
<path d="M0 0 C0.66 1.32 1.32 2.64 2 4 C0.71034824 5.37562854 -0.62689293 6.70766393 -2 8 C-2.66 8 -3.32 8 -4 8 C-2.66666667 5.33333333 -1.33333333 2.66666667 0 0 Z " fill="#2D2A34" transform="translate(174,237)"/>
<path d="M0 0 C0.66 0 1.32 0 2 0 C0.7508258 3.45925163 -0.67527795 6.14693203 -3 9 C-2.25 2.25 -2.25 2.25 0 0 Z " fill="#1F1B27" transform="translate(196,204)"/>
<path d="M0 0 C0.66 0.99 1.32 1.98 2 3 C0.68 4.65 -0.64 6.3 -2 8 C-2.66 7.34 -3.32 6.68 -4 6 C-2.68 4.02 -1.36 2.04 0 0 Z " fill="#302E39" transform="translate(214,175)"/>
<path d="M0 0 C0.33 0.99 0.66 1.98 1 3 C-2.22791555 5.1519437 -3.28400809 5.20086443 -7 5 C-2.25 1.125 -2.25 1.125 0 0 Z " fill="#431C1C" transform="translate(286,298)"/>
<path d="M0 0 C0.99 0 1.98 0 3 0 C5 3 5 3 5 7 C4.34 7 3.68 7 3 7 C0 2.61538462 0 2.61538462 0 0 Z " fill="#182225" transform="translate(328,221)"/>
<path d="M0 0 C4 4.75 4 4.75 4 7 C3.01 7.33 2.02 7.66 1 8 C-0.42944945 5.64561267 -1.08661261 4.51967567 -0.625 1.75 C-0.41875 1.1725 -0.2125 0.595 0 0 Z " fill="#A4E6E2" transform="translate(308,191)"/>
<path d="M0 0 C1.70884005 1.62339805 3.37446717 3.29319053 5 5 C5 5.66 5 6.32 5 7 C3.68 6.67 2.36 6.34 1 6 C0.67 4.02 0.34 2.04 0 0 Z " fill="#A8E2DD" transform="translate(260,117)"/>
<path d="M0 0 C0 0.66 0 1.32 0 2 C-1.98 2.66 -3.96 3.32 -6 4 C-6 2.68 -6 1.36 -6 0 C-3.50907189 -1.24546405 -2.58919267 -0.7767578 0 0 Z " fill="#C2B8E5" transform="translate(192,236)"/>
<path d="M0 0 C1.65 0 3.3 0 5 0 C5 0.66 5 1.32 5 2 C2.69 2.66 0.38 3.32 -2 4 C-1.34 2.68 -0.68 1.36 0 0 Z " fill="#0B0F28" transform="translate(217,226)"/>
<path d="M0 0 C1.32 1.32 2.64 2.64 4 4 C3.34 5.32 2.68 6.64 2 8 C0.93224776 6.03533587 -0.06553465 4.03144641 -1 2 C-0.67 1.34 -0.34 0.68 0 0 Z " fill="#293233" transform="translate(282,146)"/>
<path d="M0 0 C0.66 0.33 1.32 0.66 2 1 C1.42655063 3.86724686 1.1385485 4.8614515 -1 7 C-1.66 7 -2.32 7 -3 7 C-1.125 2.25 -1.125 2.25 0 0 Z " fill="#2B2833" transform="translate(248,121)"/>
<path d="M0 0 C1.32 1.65 2.64 3.3 4 5 C3.01 5.66 2.02 6.32 1 7 C0.01 5.02 -0.98 3.04 -2 1 C-1.34 0.67 -0.68 0.34 0 0 Z " fill="#243132" transform="translate(262,114)"/>
<path d="M0 0 C0.99 0 1.98 0 3 0 C1.73058503 3.91402949 0.48832306 5.79072873 -3 8 C-2.690625 7.236875 -2.38125 6.47375 -2.0625 5.6875 C-1.32106407 3.81210323 -0.63771783 1.91315348 0 0 Z " fill="#C41112" transform="translate(273,355)"/>
<path d="M0 0 C-1.0975223 2.99324263 -1.67682892 3.84610901 -4.625 5.25 C-5.40875 5.4975 -6.1925 5.745 -7 6 C-3.61538462 0 -3.61538462 0 0 0 Z " fill="#D30C12" transform="translate(284,303)"/>
<path d="M0 0 C0.556875 0.226875 1.11375 0.45375 1.6875 0.6875 C-5.0625 4.6875 -5.0625 4.6875 -7.3125 4.6875 C-7.3125 4.0275 -7.3125 3.3675 -7.3125 2.6875 C-3.15982824 -0.42700382 -3.15982824 -0.42700382 0 0 Z " fill="#B8A5DE" transform="translate(310.3125,268.3125)"/>
<path d="M0 0 C0.99 0 1.98 0 3 0 C3.33 1.65 3.66 3.3 4 5 C3.01 5 2.02 5 1 5 C0.34 3.68 -0.32 2.36 -1 1 C-0.67 0.67 -0.34 0.34 0 0 Z " fill="#0D1213" transform="translate(344,246)"/>
<path d="M0 0 C5.75 1.75 5.75 1.75 8 4 C5 5 5 5 2.3125 3.6875 C1.549375 3.130625 0.78625 2.57375 0 2 C0 1.34 0 0.68 0 0 Z " fill="#C1A7E0" transform="translate(262,214)"/>
<path d="M0 0 C1 2 1 2 0.0625 5.125 C-0.288125 6.07375 -0.63875 7.0225 -1 8 C-1.99 8 -2.98 8 -4 8 C-2.87548273 5.0280615 -1.77706209 2.66559313 0 0 Z " fill="#BAB2D8" transform="translate(217,175)"/>
<path d="M0 0 C0.6875 1.75 0.6875 1.75 1 4 C-0.4375 6.25 -0.4375 6.25 -2 8 C-2.66 7.34 -3.32 6.68 -4 6 C-2.68 4.02 -1.36 2.04 0 0 Z " fill="#312E39" transform="translate(235,142)"/>
</svg>
